M48
;Layer_Color=9474304
;FILE_FORMAT=2:5
INCH,TZ
;TYPE=PLATED
T1F00S00C0.01181
T2F00S00C0.01575
T4F00S00C0.01772
T7F00S00C0.02756
;TYPE=NON_PLATED
T9F00S00C0.06693
T10F00S00C0.12205
T11F00S00C0.15748
%
T01
X50098Y-102559
X63681Y-107283
X124508Y-102559
X132776Y-106102
X133366Y-30512
X124508Y-27559
X104460Y-25414
X98524Y-9843
X77264Y-32283
X50098Y-28684
X30020Y-25787
X25886Y-10433
X492Y-31865
X-24902Y-28150
X-44982Y-25395
X-49705Y-10433
X-73327Y-31461
X-96949Y-27559
X-120472Y-25787
X-124705Y-32874
X-134744Y-31693
X-135335Y-21654
X-124924Y-9507
X-128839Y16732
X-135925
X-136457Y-83071
X-128839
X-134964Y-95102
X-99902Y-101969
X-89272Y-106103
X-24902Y-102559
X-10138Y-106693
X1673Y43307
X-24902Y49213
X-45509Y49617
X-49705Y65158
X-21665Y74322
X492Y100591
X-689Y104134
X395Y108268
X1378Y112402
X-6314Y120785
X-8957Y123031
X-12363Y125310
X-11320Y130117
X-7776Y129528
X-15909Y127756
Y131299
X-18406Y134843
X-14003Y136883
X-17224Y140157
X-10510Y144611
X-7448Y147673
Y141548
X-4386Y144611
X-1323Y147673
X1739Y144611
X-1323Y141548
X1739Y138486
X-4386
X-1323Y135424
X1739Y132361
Y150735
X-1323Y153797
X-4386Y150735
X1739Y156860
X-12731Y155859
X-16108Y157610
X-20221Y157626
X-20138Y153779
X-20768Y150197
X-30119Y149778
X-30512Y143996
X-26697Y162845
X-20571Y170817
X-7786Y171467
X-5413Y169095
X-45177Y166634
X-43406Y177657
X-50295Y148425
X-49705Y133187
X-45768Y125098
X-24902Y121260
X-69840Y125927
X-71371Y135433
Y139567
X-72146Y114517
X-74734Y116899
X-68774Y112239
X-66353Y109916
X-99902Y124213
X-95178Y130708
X-120571Y124617
X-124795Y125484
X-125295Y133071
X-124311Y143307
X-131791Y139764
X-137106Y128347
X-135925Y120669
X-124705Y112992
X-128248Y91142
X-136457
X-124705Y64567
X-120374Y49033
X-126476Y42717
X-134636Y43789
X-134494Y52057
X-99902Y49213
X-73327Y43539
X-82776Y74606
X-134941Y159843
X-135335Y163386
X-138878Y163779
X-142421Y163779
X-128839Y173935
X4035Y169685
X11713Y161417
X15846Y162434
X16437Y158465
X21357Y161023
X22799Y157149
X21752Y153740
X34200Y156148
X38681Y166437
X50098Y161417
X53642Y162598
X57185Y161417
X60728
X67815Y158503
Y155147
X65986Y142846
X65659Y134252
Y125984
X79035Y126575
Y134843
Y143110
X86713Y155512
Y158868
X97638Y169095
X64961Y169980
X53642Y151378
X50098Y151969
X57963Y144800
X55413Y130709
X50098Y124213
X29609Y124617
X25529Y135120
X18573Y135528
X18536Y131966
X18573Y128611
X14845Y129117
X12995Y125394
X2854Y125347
X4801Y135424
X7863Y138486
Y144611
X4801Y147673
Y141548
X10926
Y147673
X13988Y144611
X7863Y150735
X4801Y153797
X4626Y68110
X25295Y65158
X29491Y49617
X50098Y48031
X76673Y43135
X79035Y69291
X68405Y75787
X99705Y65158
X104429Y49213
X124508Y48031
X133366Y42717
X132185Y74606
X134072Y117717
X125098Y123622
X126575Y141437
X132382Y144291
X118047Y146657
X114764Y145177
X99114Y134843
X104429Y124213
X84350Y119488
X77854Y115354
X146376Y150180
X144587Y153150
X147539Y156102
X149311Y159646
X140453Y169095
X66535Y177953
T02
X107973Y155118
X109547Y158661
X112697
X115847
X114272Y155118
X117421
X120571
X123721
X122146Y158661
X125295
X128445
X130020Y155118
T04
X105217Y150984
T07
X-106201Y164370
X-98327
X-90453
X-82579
X-74705
X-66831
T09
X19902Y-112835
X59902
X94902
X134902
Y-37835
X94902
X59902
X19902
X-15098
X-55098
X-90098
X-130098
Y-112835
X-90098
X-55098
X-15098
Y37165
X-55098
X-90098
X-130098
Y112165
X-90098
X-55098
X-15098
X19902
X59902
X94902
X134902
Y37165
X94902
X59902
X19902
T10
X24902Y-122835
X49902Y-132835
X99902Y-122835
X124902Y-132835
Y-57835
X99902Y-47835
X49902Y-57835
X24902Y-47835
X49902Y17165
X124902
X-25098
X-100098
Y-57835
X-125098Y-47835
X-50098
X-25098Y-57835
Y-132835
X-50098Y-122835
X-100098Y-132835
X-125098Y-122835
Y27165
Y102165
X-100098Y92165
X-50098Y102165
X-25098Y92165
X-50098Y27165
X24902
Y102165
X49902Y92165
X99902Y102165
X124902Y92165
X99902Y27165
T11
X39902Y-112835
Y-37835
X114902
Y-112835
X-35098
Y-37835
X-110098
Y-112835
Y37165
Y112165
X-35098
Y37165
X39902
Y112165
X114902
Y37165
M30
