G04*
G04 #@! TF.GenerationSoftware,Altium Limited,Altium Designer,20.2.5 (213)*
G04*
G04 Layer_Color=16711935*
%FSLAX25Y25*%
%MOIN*%
G70*
G04*
G04 #@! TF.SameCoordinates,1507EDD1-6C34-405B-B7BF-0C5FC60213AE*
G04*
G04*
G04 #@! TF.FilePolarity,Negative*
G04*
G01*
G75*
%ADD44C,0.12598*%
%ADD45C,0.16142*%
%ADD46C,0.07087*%
%ADD47C,0.03162*%
%ADD48O,0.05524X0.09461*%
%ADD49O,0.03162X0.04343*%
%ADD50O,0.03753X0.06115*%
%ADD51C,0.00800*%
%ADD52C,0.06312*%
%ADD53R,0.06312X0.06312*%
D44*
X24902Y102165D02*
D03*
X49902Y92165D02*
D03*
X124902D02*
D03*
X99902Y102165D02*
D03*
X-25098Y92165D02*
D03*
X-50098Y102165D02*
D03*
X-100098Y92165D02*
D03*
X-125098Y102165D02*
D03*
X124902Y17165D02*
D03*
X99902Y27165D02*
D03*
X49902Y17165D02*
D03*
X24902Y27165D02*
D03*
X-25098Y17165D02*
D03*
X-50098Y27165D02*
D03*
X-100098Y17165D02*
D03*
X-125098Y27165D02*
D03*
X124902Y-57835D02*
D03*
X99902Y-47835D02*
D03*
X49902Y-57835D02*
D03*
X24902Y-47835D02*
D03*
X-25098Y-57835D02*
D03*
X-50098Y-47835D02*
D03*
X-100098Y-57835D02*
D03*
X-125098Y-47835D02*
D03*
X124902Y-132835D02*
D03*
X99902Y-122835D02*
D03*
X49902Y-132835D02*
D03*
X24902Y-122835D02*
D03*
X-25098Y-132835D02*
D03*
X-50098Y-122835D02*
D03*
X-100098Y-132835D02*
D03*
X-125098Y-122835D02*
D03*
D45*
X39902Y112165D02*
D03*
X114902D02*
D03*
X-35098D02*
D03*
X-110098D02*
D03*
X114902Y37165D02*
D03*
X39902D02*
D03*
X-35098D02*
D03*
X-110098D02*
D03*
X114902Y-37835D02*
D03*
X39902D02*
D03*
X-35098D02*
D03*
X-110098D02*
D03*
X114902Y-112835D02*
D03*
X39902D02*
D03*
X-35098D02*
D03*
X-110098D02*
D03*
D46*
X59902Y112165D02*
D03*
X19902D02*
D03*
X94902D02*
D03*
X134902D02*
D03*
X-55098D02*
D03*
X-15098D02*
D03*
X-130098D02*
D03*
X-90098D02*
D03*
X94902Y37165D02*
D03*
X134902D02*
D03*
X19902D02*
D03*
X59902D02*
D03*
X-55098D02*
D03*
X-15098D02*
D03*
X-130098D02*
D03*
X-90098D02*
D03*
X94902Y-37835D02*
D03*
X134902D02*
D03*
X19902D02*
D03*
X59902D02*
D03*
X-55098D02*
D03*
X-15098D02*
D03*
X-130098D02*
D03*
X-90098D02*
D03*
X94902Y-112835D02*
D03*
X134902D02*
D03*
X19902D02*
D03*
X59902D02*
D03*
X-55098D02*
D03*
X-15098D02*
D03*
X-130098D02*
D03*
X-90098D02*
D03*
D47*
X125295Y158661D02*
D03*
X107973Y155118D02*
D03*
X114272D02*
D03*
X117421D02*
D03*
X120571D02*
D03*
X123721D02*
D03*
X130020D02*
D03*
X109547Y158661D02*
D03*
X112697D02*
D03*
X115847D02*
D03*
X122146D02*
D03*
X128445D02*
D03*
D48*
X136713Y175591D02*
D03*
X101279D02*
D03*
D49*
X132185Y158661D02*
D03*
X105807D02*
D03*
D50*
X102087Y155118D02*
D03*
X135906D02*
D03*
D51*
X132776Y150984D02*
D03*
X105217D02*
D03*
D52*
X-74705Y164370D02*
D03*
X-82579D02*
D03*
X-66831D02*
D03*
X-98327D02*
D03*
X-90453D02*
D03*
D53*
X-106201D02*
D03*
M02*
