G04*
G04 #@! TF.GenerationSoftware,Altium Limited,Altium Designer,20.2.5 (213)*
G04*
G04 Layer_Color=8421504*
%FSLAX25Y25*%
%MOIN*%
G70*
G04*
G04 #@! TF.SameCoordinates,1507EDD1-6C34-405B-B7BF-0C5FC60213AE*
G04*
G04*
G04 #@! TF.FilePolarity,Positive*
G04*
G01*
G75*
%ADD13R,0.03740X0.02756*%
%ADD14R,0.10039X0.09843*%
%ADD15R,0.03740X0.05512*%
%ADD16R,0.01181X0.03150*%
%ADD17C,0.03937*%
G04:AMPARAMS|DCode=18|XSize=9.84mil|YSize=41.34mil|CornerRadius=0mil|HoleSize=0mil|Usage=FLASHONLY|Rotation=45.000|XOffset=0mil|YOffset=0mil|HoleType=Round|Shape=Rectangle|*
%AMROTATEDRECTD18*
4,1,4,0.01114,-0.01810,-0.01810,0.01114,-0.01114,0.01810,0.01810,-0.01114,0.01114,-0.01810,0.0*
%
%ADD18ROTATEDRECTD18*%

G04:AMPARAMS|DCode=19|XSize=9.84mil|YSize=41.34mil|CornerRadius=0mil|HoleSize=0mil|Usage=FLASHONLY|Rotation=45.000|XOffset=0mil|YOffset=0mil|HoleType=Round|Shape=Round|*
%AMOVALD19*
21,1,0.03150,0.00984,0.00000,0.00000,135.0*
1,1,0.00984,0.01114,-0.01114*
1,1,0.00984,-0.01114,0.01114*
%
%ADD19OVALD19*%

G04:AMPARAMS|DCode=20|XSize=9.84mil|YSize=41.34mil|CornerRadius=0mil|HoleSize=0mil|Usage=FLASHONLY|Rotation=315.000|XOffset=0mil|YOffset=0mil|HoleType=Round|Shape=Round|*
%AMOVALD20*
21,1,0.03150,0.00984,0.00000,0.00000,45.0*
1,1,0.00984,-0.01114,-0.01114*
1,1,0.00984,0.01114,0.01114*
%
%ADD20OVALD20*%

%ADD21R,0.01772X0.03347*%
%ADD22O,0.01772X0.03347*%
G04:AMPARAMS|DCode=23|XSize=55.12mil|YSize=37.4mil|CornerRadius=0mil|HoleSize=0mil|Usage=FLASHONLY|Rotation=45.000|XOffset=0mil|YOffset=0mil|HoleType=Round|Shape=Rectangle|*
%AMROTATEDRECTD23*
4,1,4,-0.00626,-0.03271,-0.03271,-0.00626,0.00626,0.03271,0.03271,0.00626,-0.00626,-0.03271,0.0*
%
%ADD23ROTATEDRECTD23*%

%ADD24R,0.02362X0.03543*%
G04:AMPARAMS|DCode=25|XSize=43.31mil|YSize=55.12mil|CornerRadius=0mil|HoleSize=0mil|Usage=FLASHONLY|Rotation=135.000|XOffset=0mil|YOffset=0mil|HoleType=Round|Shape=Rectangle|*
%AMROTATEDRECTD25*
4,1,4,0.03480,0.00418,-0.00418,-0.03480,-0.03480,-0.00418,0.00418,0.03480,0.03480,0.00418,0.0*
%
%ADD25ROTATEDRECTD25*%

G04:AMPARAMS|DCode=26|XSize=55.12mil|YSize=37.4mil|CornerRadius=0mil|HoleSize=0mil|Usage=FLASHONLY|Rotation=315.000|XOffset=0mil|YOffset=0mil|HoleType=Round|Shape=Rectangle|*
%AMROTATEDRECTD26*
4,1,4,-0.03271,0.00626,-0.00626,0.03271,0.03271,-0.00626,0.00626,-0.03271,-0.03271,0.00626,0.0*
%
%ADD26ROTATEDRECTD26*%

%ADD27R,0.05512X0.03740*%
G36*
X5497Y153797D02*
X1739Y150039D01*
X-2019Y153797D01*
X1739Y157556D01*
X5497Y153797D01*
D02*
G37*
G36*
X10090Y149204D02*
X6332Y145446D01*
X2574Y149204D01*
X6332Y152962D01*
X10090Y149204D01*
D02*
G37*
G36*
X904D02*
X-2855Y145446D01*
X-6613Y149204D01*
X-2855Y152962D01*
X904Y149204D01*
D02*
G37*
G36*
X14684Y144611D02*
X10926Y140852D01*
X7167Y144611D01*
X10926Y148369D01*
X14684Y144611D01*
D02*
G37*
G36*
X5497D02*
X1739Y140852D01*
X-2019Y144611D01*
X1739Y148369D01*
X5497Y144611D01*
D02*
G37*
G36*
X-3690D02*
X-7448Y140852D01*
X-11206Y144611D01*
X-7448Y148369D01*
X-3690Y144611D01*
D02*
G37*
G36*
X10090Y140017D02*
X6332Y136259D01*
X2574Y140017D01*
X6332Y143775D01*
X10090Y140017D01*
D02*
G37*
G36*
X904D02*
X-2855Y136259D01*
X-6613Y140017D01*
X-2855Y143775D01*
X904Y140017D01*
D02*
G37*
G36*
X5497Y135424D02*
X1739Y131666D01*
X-2019Y135424D01*
X1739Y139182D01*
X5497Y135424D01*
D02*
G37*
D13*
X29370Y129095D02*
D03*
X50433D02*
D03*
Y135000D02*
D03*
X29370D02*
D03*
X104370D02*
D03*
X125433D02*
D03*
Y129095D02*
D03*
X104370D02*
D03*
X-45630Y135000D02*
D03*
X-24567D02*
D03*
Y129095D02*
D03*
X-45630D02*
D03*
X-120630Y135000D02*
D03*
X-99567D02*
D03*
Y129095D02*
D03*
X-120630D02*
D03*
X104370Y60000D02*
D03*
X125433D02*
D03*
Y54094D02*
D03*
X104370D02*
D03*
X29370Y60000D02*
D03*
X50433D02*
D03*
Y54094D02*
D03*
X29370D02*
D03*
X-45630Y60000D02*
D03*
X-24567D02*
D03*
Y54094D02*
D03*
X-45630D02*
D03*
X-120630Y60000D02*
D03*
X-99567D02*
D03*
Y54094D02*
D03*
X-120630D02*
D03*
X104370Y-15000D02*
D03*
X125433D02*
D03*
Y-20906D02*
D03*
X104370D02*
D03*
X29370Y-15000D02*
D03*
X50433D02*
D03*
Y-20906D02*
D03*
X29370D02*
D03*
X-45630Y-15000D02*
D03*
X-24567D02*
D03*
Y-20906D02*
D03*
X-45630D02*
D03*
X-120630Y-15000D02*
D03*
X-99567D02*
D03*
Y-20906D02*
D03*
X-120630D02*
D03*
X104370Y-90000D02*
D03*
X125433D02*
D03*
Y-95906D02*
D03*
X104370D02*
D03*
X29370Y-90000D02*
D03*
X50433D02*
D03*
Y-95906D02*
D03*
X29370D02*
D03*
X-45630Y-90000D02*
D03*
X-24567D02*
D03*
Y-95906D02*
D03*
X-45630D02*
D03*
X-120630Y-90000D02*
D03*
X-99567D02*
D03*
Y-95906D02*
D03*
X-120630D02*
D03*
D14*
X63878Y92165D02*
D03*
X10925Y102165D02*
D03*
X85925D02*
D03*
X138878Y92165D02*
D03*
X-64075Y102165D02*
D03*
X-11122Y92165D02*
D03*
X-139075Y102165D02*
D03*
X-86122Y92165D02*
D03*
X85925Y27165D02*
D03*
X138878Y17165D02*
D03*
X10925Y27165D02*
D03*
X63878Y17165D02*
D03*
X-64075Y27165D02*
D03*
X-11122Y17165D02*
D03*
X-139075Y27165D02*
D03*
X-86122Y17165D02*
D03*
X85925Y-47835D02*
D03*
X138878Y-57835D02*
D03*
X10925Y-47835D02*
D03*
X63878Y-57835D02*
D03*
X-64075Y-47835D02*
D03*
X-11122Y-57835D02*
D03*
X-139075Y-47835D02*
D03*
X-86122Y-57835D02*
D03*
X85925Y-122835D02*
D03*
X138878Y-132835D02*
D03*
X10925Y-122835D02*
D03*
X63878Y-132835D02*
D03*
X-64075Y-122835D02*
D03*
X-11122Y-132835D02*
D03*
X-139075Y-122835D02*
D03*
X-86122Y-132835D02*
D03*
D15*
X10630Y174409D02*
D03*
X3347D02*
D03*
X-81496Y143701D02*
D03*
X-88779D02*
D03*
X90945Y134843D02*
D03*
X83661Y134843D02*
D03*
X90945Y143110D02*
D03*
X83661Y143110D02*
D03*
X90945Y126575D02*
D03*
X83662D02*
D03*
X82677Y75787D02*
D03*
X75394Y75787D02*
D03*
X79724Y178248D02*
D03*
X72441D02*
D03*
X79724Y169685D02*
D03*
X72441D02*
D03*
X79724Y160959D02*
D03*
X72441Y160959D02*
D03*
X79724Y152691D02*
D03*
X72441Y152691D02*
D03*
X69095Y142520D02*
D03*
X61811Y142520D02*
D03*
X69095Y134252D02*
D03*
X61811Y134252D02*
D03*
X69095Y125984D02*
D03*
X61811D02*
D03*
X6496Y74606D02*
D03*
X-787D02*
D03*
X-8858D02*
D03*
X-16142D02*
D03*
X-31496Y173031D02*
D03*
X-38780D02*
D03*
X-35531Y145669D02*
D03*
X-42815D02*
D03*
X-59646Y143701D02*
D03*
X-66929Y143701D02*
D03*
X-59646Y135433D02*
D03*
X-66929Y135433D02*
D03*
X-59646Y127165D02*
D03*
X-66929Y127165D02*
D03*
X-69095Y74016D02*
D03*
X-76378Y74016D02*
D03*
X-81496Y135433D02*
D03*
X-88779Y135433D02*
D03*
X-81496Y127165D02*
D03*
X-88779Y127165D02*
D03*
D16*
X108169Y150787D02*
D03*
X110138D02*
D03*
X112106D02*
D03*
X114075D02*
D03*
X116043D02*
D03*
X118012D02*
D03*
X119980D02*
D03*
X121949D02*
D03*
X123917D02*
D03*
X125886D02*
D03*
X127854D02*
D03*
X129823D02*
D03*
D17*
X-110827Y-76083D02*
D03*
X138779Y-79232D02*
D03*
X-122047Y155807D02*
D03*
D18*
X-558Y160827D02*
D03*
D19*
X-1950Y159435D02*
D03*
X-3342Y158043D02*
D03*
X-4734Y156651D02*
D03*
X-6126Y155259D02*
D03*
X-7518Y153867D02*
D03*
X-8910Y152475D02*
D03*
X-10301Y151083D02*
D03*
X-11693Y149691D02*
D03*
X-13085Y148299D02*
D03*
X-14477Y146907D02*
D03*
X4036Y128394D02*
D03*
X5427Y129786D02*
D03*
X6819Y131178D02*
D03*
X8211Y132570D02*
D03*
X9603Y133962D02*
D03*
X10995Y135354D02*
D03*
X12387Y136746D02*
D03*
X13779Y138138D02*
D03*
X15171Y139530D02*
D03*
X16563Y140922D02*
D03*
X17955Y142314D02*
D03*
D20*
X-14477D02*
D03*
X-13085Y140922D02*
D03*
X-11693Y139530D02*
D03*
X-10301Y138138D02*
D03*
X-8910Y136746D02*
D03*
X-7518Y135354D02*
D03*
X-6126Y133962D02*
D03*
X-4734Y132570D02*
D03*
X-3342Y131178D02*
D03*
X-1950Y129786D02*
D03*
X-558Y128394D02*
D03*
X17955Y146907D02*
D03*
X16563Y148299D02*
D03*
X15171Y149691D02*
D03*
X13779Y151083D02*
D03*
X12387Y152475D02*
D03*
X10995Y153867D02*
D03*
X9603Y155259D02*
D03*
X8211Y156651D02*
D03*
X6819Y158043D02*
D03*
X5427Y159435D02*
D03*
X4036Y160827D02*
D03*
D21*
X144390Y116634D02*
D03*
X71161Y116240D02*
D03*
X-5217D02*
D03*
X-80807D02*
D03*
X146358Y39665D02*
D03*
X71161Y40650D02*
D03*
X-4035Y39075D02*
D03*
X-78839Y39862D02*
D03*
X144783Y-34547D02*
D03*
X71161Y-35335D02*
D03*
X-3642Y-35925D02*
D03*
X-79232Y-34547D02*
D03*
X145177Y-110335D02*
D03*
X70177Y-111516D02*
D03*
X-3642D02*
D03*
X-79823Y-113878D02*
D03*
D22*
X144390Y106201D02*
D03*
X71161Y105807D02*
D03*
X-5217D02*
D03*
X-80807D02*
D03*
X146358Y29232D02*
D03*
X71161Y30217D02*
D03*
X-4035Y28642D02*
D03*
X-78839Y29429D02*
D03*
X144783Y-44980D02*
D03*
X71161Y-45768D02*
D03*
X-3642Y-46358D02*
D03*
X-79232Y-44980D02*
D03*
X145177Y-120768D02*
D03*
X70177Y-121949D02*
D03*
X-3642D02*
D03*
X-79823Y-124311D02*
D03*
D23*
X28626Y160449D02*
D03*
X33776Y155299D02*
D03*
X23737Y165338D02*
D03*
X18586Y170489D02*
D03*
D24*
X-135728Y56496D02*
D03*
X-139469Y47441D02*
D03*
X-131988D02*
D03*
X-135925Y-90945D02*
D03*
X-132185Y-100000D02*
D03*
X-139665Y-100000D02*
D03*
X-136516Y132874D02*
D03*
X-140256Y123819D02*
D03*
X-132776D02*
D03*
X-136516Y-17717D02*
D03*
X-140256Y-26772D02*
D03*
X-132776Y-26772D02*
D03*
D25*
X-31522Y161071D02*
D03*
X-35976Y165526D02*
D03*
X-42100Y159401D02*
D03*
X-37646Y154947D02*
D03*
D26*
X-13468Y166945D02*
D03*
X-18618Y161795D02*
D03*
D27*
X-140650Y117815D02*
D03*
X-140650Y110531D02*
D03*
M02*
