G04*
G04 #@! TF.GenerationSoftware,Altium Limited,Altium Designer,20.2.5 (213)*
G04*
G04 Layer_Color=65535*
%FSLAX25Y25*%
%MOIN*%
G70*
G04*
G04 #@! TF.SameCoordinates,1507EDD1-6C34-405B-B7BF-0C5FC60213AE*
G04*
G04*
G04 #@! TF.FilePolarity,Positive*
G04*
G01*
G75*
%ADD10C,0.01000*%
%ADD11C,0.00984*%
%ADD12C,0.00787*%
D10*
X50630Y124862D02*
X49892Y125288D01*
Y124436D01*
X50630Y124862D01*
X125630D02*
X124892Y125288D01*
Y124436D01*
X125630Y124862D01*
X-24370D02*
X-25108Y125288D01*
Y124436D01*
X-24370Y124862D01*
X-99370D02*
X-100108Y125288D01*
Y124436D01*
X-99370Y124862D01*
X125630Y49862D02*
X124892Y50288D01*
Y49436D01*
X125630Y49862D01*
X50630D02*
X49892Y50288D01*
Y49436D01*
X50630Y49862D01*
X-24370D02*
X-25108Y50288D01*
Y49436D01*
X-24370Y49862D01*
X-99370D02*
X-100108Y50288D01*
Y49436D01*
X-99370Y49862D01*
X125630Y-25138D02*
X124892Y-24712D01*
Y-25564D01*
X125630Y-25138D01*
X50630D02*
X49892Y-24712D01*
Y-25564D01*
X50630Y-25138D01*
X-24370D02*
X-25108Y-24712D01*
Y-25564D01*
X-24370Y-25138D01*
X-99370D02*
X-100108Y-24712D01*
Y-25564D01*
X-99370Y-25138D01*
X125630Y-100138D02*
X124892Y-99712D01*
Y-100564D01*
X125630Y-100138D01*
X50630D02*
X49892Y-99712D01*
Y-100564D01*
X50630Y-100138D01*
X-24370D02*
X-25108Y-99712D01*
Y-100564D01*
X-24370Y-100138D01*
X-99370D02*
X-100108Y-99712D01*
Y-100564D01*
X-99370Y-100138D01*
X-4626Y178567D02*
X-5376Y179316D01*
X-6875D01*
X-7625Y178567D01*
Y175567D01*
X-6875Y174818D01*
X-5376D01*
X-4626Y175567D01*
X-3127Y174818D02*
X-1627D01*
X-2377D01*
Y179316D01*
X-3127Y178567D01*
X43589Y141944D02*
Y146442D01*
X45839D01*
X46589Y145692D01*
Y144193D01*
X45839Y143443D01*
X43589D01*
X45089D02*
X46589Y141944D01*
X48088D02*
X49588D01*
X48838D01*
Y146442D01*
X48088Y145692D01*
X54836Y141944D02*
X51837D01*
X54836Y144943D01*
Y145692D01*
X54086Y146442D01*
X52587D01*
X51837Y145692D01*
X-116717Y99124D02*
X-114717D01*
X-115717D01*
Y93126D01*
X-116717D01*
X-114717D01*
X-111718Y99124D02*
Y93126D01*
X-108719D01*
X-107719Y94126D01*
Y95125D01*
X-108719Y96125D01*
X-111718D01*
X-108719D01*
X-107719Y97125D01*
Y98124D01*
X-108719Y99124D01*
X-111718D01*
X-67435Y158633D02*
X-69768D01*
Y156883D01*
X-68601Y157466D01*
X-68018D01*
X-67435Y156883D01*
Y155717D01*
X-68018Y155134D01*
X-69185D01*
X-69768Y155717D01*
X-66269Y158633D02*
Y156300D01*
X-65102Y155134D01*
X-63936Y156300D01*
Y158633D01*
X-76884Y172715D02*
X-77467Y173298D01*
X-78633D01*
X-79216Y172715D01*
Y172132D01*
X-78633Y171549D01*
X-77467D01*
X-76884Y170966D01*
Y170382D01*
X-77467Y169799D01*
X-78633D01*
X-79216Y170382D01*
X-75718Y173298D02*
Y169799D01*
X-73385D01*
X-69886Y172715D02*
X-70469Y173298D01*
X-71636D01*
X-72219Y172715D01*
Y170382D01*
X-71636Y169799D01*
X-70469D01*
X-69886Y170382D01*
X-88075Y155134D02*
Y158633D01*
X-86909Y157466D01*
X-85742Y158633D01*
Y155134D01*
X-82827Y158633D02*
X-83993D01*
X-84576Y158050D01*
Y155717D01*
X-83993Y155134D01*
X-82827D01*
X-82243Y155717D01*
Y158050D01*
X-82827Y158633D01*
X-78745Y158050D02*
X-79328Y158633D01*
X-80494D01*
X-81077Y158050D01*
Y157466D01*
X-80494Y156883D01*
X-79328D01*
X-78745Y156300D01*
Y155717D01*
X-79328Y155134D01*
X-80494D01*
X-81077Y155717D01*
X-77578Y158633D02*
X-76412D01*
X-76995D01*
Y155134D01*
X-77578D01*
X-76412D01*
X-96539Y169996D02*
Y173495D01*
X-95373Y172329D01*
X-94207Y173495D01*
Y169996D01*
X-93041Y173495D02*
X-91874D01*
X-92457D01*
Y169996D01*
X-93041D01*
X-91874D01*
X-87792Y172912D02*
X-88375Y173495D01*
X-89542D01*
X-90125Y172912D01*
Y172329D01*
X-89542Y171746D01*
X-88375D01*
X-87792Y171162D01*
Y170579D01*
X-88375Y169996D01*
X-89542D01*
X-90125Y170579D01*
X-84877Y173495D02*
X-86043D01*
X-86626Y172912D01*
Y170579D01*
X-86043Y169996D01*
X-84877D01*
X-84293Y170579D01*
Y172912D01*
X-84877Y173495D01*
X-108478Y172518D02*
X-109062Y173101D01*
X-110228D01*
X-110811Y172518D01*
Y170185D01*
X-110228Y169602D01*
X-109062D01*
X-108478Y170185D01*
Y171352D01*
X-109645D01*
X-107312Y169602D02*
Y173101D01*
X-104980Y169602D01*
Y173101D01*
X-103813D02*
Y169602D01*
X-102064D01*
X-101481Y170185D01*
Y172518D01*
X-102064Y173101D01*
X-103813D01*
X-102937Y155232D02*
Y158731D01*
X-101188D01*
X-100604Y158148D01*
Y156982D01*
X-101188Y156399D01*
X-102937D01*
X-101771D02*
X-100604Y155232D01*
X-97106Y158148D02*
X-97689Y158731D01*
X-98855D01*
X-99438Y158148D01*
Y157565D01*
X-98855Y156982D01*
X-97689D01*
X-97106Y156399D01*
Y155815D01*
X-97689Y155232D01*
X-98855D01*
X-99438Y155815D01*
X-95939Y158731D02*
X-93607D01*
X-94773D01*
Y155232D01*
X19522Y123350D02*
X18772Y124100D01*
X17272D01*
X16522Y123350D01*
Y122600D01*
X17272Y121850D01*
X18772D01*
X19522Y121101D01*
Y120351D01*
X18772Y119601D01*
X17272D01*
X16522Y120351D01*
X21021Y119601D02*
X22521D01*
X21771D01*
Y124100D01*
X21021Y123350D01*
X27769Y124100D02*
X24770D01*
Y121850D01*
X26269Y122600D01*
X27019D01*
X27769Y121850D01*
Y120351D01*
X27019Y119601D01*
X25520D01*
X24770Y120351D01*
X58653Y168125D02*
Y172623D01*
X60902D01*
X61652Y171873D01*
Y170374D01*
X60902Y169624D01*
X58653D01*
X60152D02*
X61652Y168125D01*
X66150Y172623D02*
X63151D01*
Y170374D01*
X64651Y171124D01*
X65401D01*
X66150Y170374D01*
Y168875D01*
X65401Y168125D01*
X63901D01*
X63151Y168875D01*
X58751Y175704D02*
Y180202D01*
X61001D01*
X61750Y179452D01*
Y177953D01*
X61001Y177203D01*
X58751D01*
X60251D02*
X61750Y175704D01*
X65499D02*
Y180202D01*
X63250Y177953D01*
X66249D01*
X-49380Y166202D02*
X-48850Y165672D01*
X-46730D01*
X-46730Y167793D01*
X-47260Y168323D01*
X-46730Y165672D02*
X-45139Y164082D01*
X-43018Y166202D02*
X-41958Y167262D01*
X-42488Y166732D01*
X-45669Y169913D01*
Y168853D01*
X-140363Y143982D02*
Y140233D01*
X-139613Y139483D01*
X-138114D01*
X-137364Y140233D01*
Y143982D01*
X-132865D02*
X-135864D01*
Y141732D01*
X-134365Y142482D01*
X-133615D01*
X-132865Y141732D01*
Y140233D01*
X-133615Y139483D01*
X-135115D01*
X-135864Y140233D01*
X-139772Y67407D02*
Y63658D01*
X-139023Y62908D01*
X-137523D01*
X-136773Y63658D01*
Y67407D01*
X-133025Y62908D02*
Y67407D01*
X-135274Y65158D01*
X-132275D01*
X-140461Y-6117D02*
Y-9866D01*
X-139712Y-10615D01*
X-138212D01*
X-137462Y-9866D01*
Y-6117D01*
X-135963Y-6867D02*
X-135213Y-6117D01*
X-133714D01*
X-132964Y-6867D01*
Y-7616D01*
X-133714Y-8366D01*
X-134463D01*
X-133714D01*
X-132964Y-9116D01*
Y-9866D01*
X-133714Y-10615D01*
X-135213D01*
X-135963Y-9866D01*
X-140206Y-80822D02*
Y-84570D01*
X-139456Y-85320D01*
X-137957D01*
X-137207Y-84570D01*
Y-80822D01*
X-132708Y-85320D02*
X-135707D01*
X-132708Y-82321D01*
Y-81571D01*
X-133458Y-80822D01*
X-134958D01*
X-135707Y-81571D01*
X-25069Y150257D02*
X-22419Y147606D01*
X-21358D01*
X-20298Y148667D01*
Y149727D01*
X-22949Y152378D01*
X-18708Y150257D02*
X-17647Y151318D01*
X-18177Y150787D01*
X-21358Y153968D01*
Y152908D01*
X99738Y121578D02*
X98988Y122328D01*
X97489D01*
X96739Y121578D01*
Y120828D01*
X97489Y120079D01*
X98988D01*
X99738Y119329D01*
Y118579D01*
X98988Y117830D01*
X97489D01*
X96739Y118579D01*
X101238Y117830D02*
X102737D01*
X101987D01*
Y122328D01*
X101238Y121578D01*
X107985Y122328D02*
X106486Y121578D01*
X104986Y120079D01*
Y118579D01*
X105736Y117830D01*
X107236D01*
X107985Y118579D01*
Y119329D01*
X107236Y120079D01*
X104986D01*
X-54199Y122759D02*
X-54949Y123509D01*
X-56448D01*
X-57198Y122759D01*
Y122010D01*
X-56448Y121260D01*
X-54949D01*
X-54199Y120510D01*
Y119760D01*
X-54949Y119011D01*
X-56448D01*
X-57198Y119760D01*
X-52699Y119011D02*
X-51200D01*
X-51950D01*
Y123509D01*
X-52699Y122759D01*
X-46701Y119011D02*
Y123509D01*
X-48951Y121260D01*
X-45952D01*
X-124671Y122759D02*
X-125421Y123509D01*
X-126921D01*
X-127670Y122759D01*
Y122010D01*
X-126921Y121260D01*
X-125421D01*
X-124671Y120510D01*
Y119760D01*
X-125421Y119011D01*
X-126921D01*
X-127670Y119760D01*
X-123172Y119011D02*
X-121672D01*
X-122422D01*
Y123509D01*
X-123172Y122759D01*
X-119423D02*
X-118673Y123509D01*
X-117174D01*
X-116424Y122759D01*
Y122010D01*
X-117174Y121260D01*
X-117924D01*
X-117174D01*
X-116424Y120510D01*
Y119760D01*
X-117174Y119011D01*
X-118673D01*
X-119423Y119760D01*
X95604Y49334D02*
X94854Y50084D01*
X93355D01*
X92605Y49334D01*
Y48584D01*
X93355Y47835D01*
X94854D01*
X95604Y47085D01*
Y46335D01*
X94854Y45585D01*
X93355D01*
X92605Y46335D01*
X97104Y45585D02*
X98603D01*
X97853D01*
Y50084D01*
X97104Y49334D01*
X103851Y45585D02*
X100853D01*
X103851Y48584D01*
Y49334D01*
X103102Y50084D01*
X101602D01*
X100853Y49334D01*
X20173Y47956D02*
X19423Y48706D01*
X17924D01*
X17174Y47956D01*
Y47207D01*
X17924Y46457D01*
X19423D01*
X20173Y45707D01*
Y44957D01*
X19423Y44207D01*
X17924D01*
X17174Y44957D01*
X21672Y44207D02*
X23172D01*
X22422D01*
Y48706D01*
X21672Y47956D01*
X25421Y44207D02*
X26921D01*
X26171D01*
Y48706D01*
X25421Y47956D01*
X-56463Y48055D02*
X-57213Y48804D01*
X-58712D01*
X-59462Y48055D01*
Y47305D01*
X-58712Y46555D01*
X-57213D01*
X-56463Y45805D01*
Y45056D01*
X-57213Y44306D01*
X-58712D01*
X-59462Y45056D01*
X-54963Y44306D02*
X-53464D01*
X-54214D01*
Y48804D01*
X-54963Y48055D01*
X-51214D02*
X-50465Y48804D01*
X-48965D01*
X-48215Y48055D01*
Y45056D01*
X-48965Y44306D01*
X-50465D01*
X-51214Y45056D01*
Y48055D01*
X-123584Y46775D02*
X-124334Y47525D01*
X-125834D01*
X-126583Y46775D01*
Y46025D01*
X-125834Y45276D01*
X-124334D01*
X-123584Y44526D01*
Y43776D01*
X-124334Y43026D01*
X-125834D01*
X-126583Y43776D01*
X-122085D02*
X-121335Y43026D01*
X-119836D01*
X-119086Y43776D01*
Y46775D01*
X-119836Y47525D01*
X-121335D01*
X-122085Y46775D01*
Y46025D01*
X-121335Y45276D01*
X-119086D01*
X96002Y-26059D02*
X95253Y-25310D01*
X93753D01*
X93003Y-26059D01*
Y-26809D01*
X93753Y-27559D01*
X95253D01*
X96002Y-28309D01*
Y-29059D01*
X95253Y-29808D01*
X93753D01*
X93003Y-29059D01*
X97502Y-26059D02*
X98251Y-25310D01*
X99751D01*
X100501Y-26059D01*
Y-26809D01*
X99751Y-27559D01*
X100501Y-28309D01*
Y-29059D01*
X99751Y-29808D01*
X98251D01*
X97502Y-29059D01*
Y-28309D01*
X98251Y-27559D01*
X97502Y-26809D01*
Y-26059D01*
X98251Y-27559D02*
X99751D01*
X20805Y-26650D02*
X20056Y-25900D01*
X18556D01*
X17806Y-26650D01*
Y-27400D01*
X18556Y-28150D01*
X20056D01*
X20805Y-28899D01*
Y-29649D01*
X20056Y-30399D01*
X18556D01*
X17806Y-29649D01*
X22305Y-25900D02*
X25304D01*
Y-26650D01*
X22305Y-29649D01*
Y-30399D01*
X-53112Y-25961D02*
X-53862Y-25211D01*
X-55361D01*
X-56111Y-25961D01*
Y-26711D01*
X-55361Y-27461D01*
X-53862D01*
X-53112Y-28210D01*
Y-28960D01*
X-53862Y-29710D01*
X-55361D01*
X-56111Y-28960D01*
X-48613Y-25211D02*
X-50113Y-25961D01*
X-51612Y-27461D01*
Y-28960D01*
X-50863Y-29710D01*
X-49363D01*
X-48613Y-28960D01*
Y-28210D01*
X-49363Y-27461D01*
X-51612D01*
X-123978Y-28422D02*
X-124728Y-27672D01*
X-126227D01*
X-126977Y-28422D01*
Y-29171D01*
X-126227Y-29921D01*
X-124728D01*
X-123978Y-30671D01*
Y-31421D01*
X-124728Y-32171D01*
X-126227D01*
X-126977Y-31421D01*
X-119480Y-27672D02*
X-122479D01*
Y-29921D01*
X-120979Y-29171D01*
X-120229D01*
X-119480Y-29921D01*
Y-31421D01*
X-120229Y-32171D01*
X-121729D01*
X-122479Y-31421D01*
X102325Y-102044D02*
X103074Y-101294D01*
X104574D01*
X105324Y-102044D01*
Y-102794D01*
X104574Y-103543D01*
X103074D01*
X102325Y-104293D01*
Y-105043D01*
X103074Y-105793D01*
X104574D01*
X105324Y-105043D01*
X98576Y-105793D02*
Y-101294D01*
X100825Y-103543D01*
X97826D01*
X21986Y-101650D02*
X21237Y-100900D01*
X19737D01*
X18987Y-101650D01*
Y-102400D01*
X19737Y-103150D01*
X21237D01*
X21986Y-103899D01*
Y-104649D01*
X21237Y-105399D01*
X19737D01*
X18987Y-104649D01*
X23486Y-101650D02*
X24236Y-100900D01*
X25735D01*
X26485Y-101650D01*
Y-102400D01*
X25735Y-103150D01*
X24985D01*
X25735D01*
X26485Y-103899D01*
Y-104649D01*
X25735Y-105399D01*
X24236D01*
X23486Y-104649D01*
X-53013Y-100863D02*
X-53763Y-100113D01*
X-55263D01*
X-56013Y-100863D01*
Y-101612D01*
X-55263Y-102362D01*
X-53763D01*
X-53013Y-103112D01*
Y-103862D01*
X-53763Y-104612D01*
X-55263D01*
X-56013Y-103862D01*
X-48515Y-104612D02*
X-51514D01*
X-48515Y-101612D01*
Y-100863D01*
X-49265Y-100113D01*
X-50764D01*
X-51514Y-100863D01*
X-122835Y-102437D02*
X-123584Y-101688D01*
X-125084D01*
X-125834Y-102437D01*
Y-103187D01*
X-125084Y-103937D01*
X-123584D01*
X-122835Y-104687D01*
Y-105437D01*
X-123584Y-106186D01*
X-125084D01*
X-125834Y-105437D01*
X-121335Y-106186D02*
X-119836D01*
X-120585D01*
Y-101688D01*
X-121335Y-102437D01*
X-146570Y109122D02*
X-151068D01*
Y111371D01*
X-150318Y112121D01*
X-148819D01*
X-148069Y111371D01*
Y109122D01*
Y110621D02*
X-146570Y112121D01*
Y116619D02*
Y113620D01*
X-149569Y116619D01*
X-150318D01*
X-151068Y115870D01*
Y114370D01*
X-150318Y113620D01*
X-146570Y118119D02*
Y119618D01*
Y118869D01*
X-151068D01*
X-150318Y118119D01*
X-78144Y80034D02*
Y84533D01*
X-75894D01*
X-75145Y83783D01*
Y82284D01*
X-75894Y81534D01*
X-78144D01*
X-76644D02*
X-75145Y80034D01*
X-70646D02*
X-73645D01*
X-70646Y83033D01*
Y83783D01*
X-71396Y84533D01*
X-72895D01*
X-73645Y83783D01*
X-69147D02*
X-68397Y84533D01*
X-66897D01*
X-66148Y83783D01*
Y80784D01*
X-66897Y80034D01*
X-68397D01*
X-69147Y80784D01*
Y83783D01*
X-1194Y80625D02*
Y85123D01*
X1055D01*
X1805Y84373D01*
Y82874D01*
X1055Y82124D01*
X-1194D01*
X305D02*
X1805Y80625D01*
X3305D02*
X4804D01*
X4054D01*
Y85123D01*
X3305Y84373D01*
X7053Y81375D02*
X7803Y80625D01*
X9303D01*
X10052Y81375D01*
Y84373D01*
X9303Y85123D01*
X7803D01*
X7053Y84373D01*
Y83624D01*
X7803Y82874D01*
X10052D01*
X73707Y80920D02*
Y85419D01*
X75957D01*
X76707Y84669D01*
Y83169D01*
X75957Y82420D01*
X73707D01*
X75207D02*
X76707Y80920D01*
X78206D02*
X79706D01*
X78956D01*
Y85419D01*
X78206Y84669D01*
X81955D02*
X82705Y85419D01*
X84204D01*
X84954Y84669D01*
Y83919D01*
X84204Y83169D01*
X84954Y82420D01*
Y81670D01*
X84204Y80920D01*
X82705D01*
X81955Y81670D01*
Y82420D01*
X82705Y83169D01*
X81955Y83919D01*
Y84669D01*
X82705Y83169D02*
X84204D01*
X94574Y141255D02*
Y145753D01*
X96823D01*
X97573Y145003D01*
Y143504D01*
X96823Y142754D01*
X94574D01*
X96073D02*
X97573Y141255D01*
X99072D02*
X100572D01*
X99822D01*
Y145753D01*
X99072Y145003D01*
X102821Y145753D02*
X105820D01*
Y145003D01*
X102821Y142004D01*
Y141255D01*
X98903Y127645D02*
X94404D01*
Y129894D01*
X95154Y130644D01*
X96653D01*
X97403Y129894D01*
Y127645D01*
Y129144D02*
X98903Y130644D01*
Y132143D02*
Y133643D01*
Y132893D01*
X94404D01*
X95154Y132143D01*
X94404Y138891D02*
X95154Y137391D01*
X96653Y135892D01*
X98153D01*
X98903Y136642D01*
Y138141D01*
X98153Y138891D01*
X97403D01*
X96653Y138141D01*
Y135892D01*
X81975Y117731D02*
Y122230D01*
X84224D01*
X84974Y121480D01*
Y119980D01*
X84224Y119231D01*
X81975D01*
X83475D02*
X84974Y117731D01*
X86474D02*
X87973D01*
X87224D01*
Y122230D01*
X86474Y121480D01*
X93222Y122230D02*
X90223D01*
Y119980D01*
X91722Y120730D01*
X92472D01*
X93222Y119980D01*
Y118481D01*
X92472Y117731D01*
X90972D01*
X90223Y118481D01*
X54712Y117042D02*
Y121541D01*
X56961D01*
X57710Y120791D01*
Y119291D01*
X56961Y118542D01*
X54712D01*
X56211D02*
X57710Y117042D01*
X59210D02*
X60710D01*
X59960D01*
Y121541D01*
X59210Y120791D01*
X65208Y117042D02*
Y121541D01*
X62959Y119291D01*
X65958D01*
X58352Y127251D02*
X53853D01*
Y129500D01*
X54603Y130250D01*
X56102D01*
X56852Y129500D01*
Y127251D01*
Y128750D02*
X58352Y130250D01*
Y131749D02*
Y133249D01*
Y132499D01*
X53853D01*
X54603Y131749D01*
Y135498D02*
X53853Y136248D01*
Y137747D01*
X54603Y138497D01*
X55353D01*
X56102Y137747D01*
Y136998D01*
Y137747D01*
X56852Y138497D01*
X57602D01*
X58352Y137747D01*
Y136248D01*
X57602Y135498D01*
X-70979Y143158D02*
X-75478D01*
Y145407D01*
X-74728Y146157D01*
X-73228D01*
X-72479Y145407D01*
Y143158D01*
Y144658D02*
X-70979Y146157D01*
Y147657D02*
Y149156D01*
Y148406D01*
X-75478D01*
X-74728Y147657D01*
X-70979Y151405D02*
Y152905D01*
Y152155D01*
X-75478D01*
X-74728Y151405D01*
X-70979Y129318D02*
X-75478D01*
Y131567D01*
X-74728Y132317D01*
X-73228D01*
X-72479Y131567D01*
Y129318D01*
Y130817D02*
X-70979Y132317D01*
Y133816D02*
Y135316D01*
Y134566D01*
X-75478D01*
X-74728Y133816D01*
Y137565D02*
X-75478Y138315D01*
Y139814D01*
X-74728Y140564D01*
X-71729D01*
X-70979Y139814D01*
Y138315D01*
X-71729Y137565D01*
X-74728D01*
X-70881Y118791D02*
X-75379D01*
Y121040D01*
X-74629Y121790D01*
X-73130D01*
X-72380Y121040D01*
Y118791D01*
Y120290D02*
X-70881Y121790D01*
X-71630Y123289D02*
X-70881Y124039D01*
Y125538D01*
X-71630Y126288D01*
X-74629D01*
X-75379Y125538D01*
Y124039D01*
X-74629Y123289D01*
X-73880D01*
X-73130Y124039D01*
Y126288D01*
X-91944Y121645D02*
X-96442D01*
Y123894D01*
X-95692Y124644D01*
X-94193D01*
X-93443Y123894D01*
Y121645D01*
Y123144D02*
X-91944Y124644D01*
X-95692Y126144D02*
X-96442Y126893D01*
Y128393D01*
X-95692Y129142D01*
X-94943D01*
X-94193Y128393D01*
X-93443Y129142D01*
X-92693D01*
X-91944Y128393D01*
Y126893D01*
X-92693Y126144D01*
X-93443D01*
X-94193Y126893D01*
X-94943Y126144D01*
X-95692D01*
X-94193Y126893D02*
Y128393D01*
X-91747Y132275D02*
X-96245D01*
Y134524D01*
X-95496Y135274D01*
X-93996D01*
X-93246Y134524D01*
Y132275D01*
Y133774D02*
X-91747Y135274D01*
X-96245Y136773D02*
Y139772D01*
X-95496D01*
X-92497Y136773D01*
X-91747D01*
X-99812Y142337D02*
Y146836D01*
X-97562D01*
X-96813Y146086D01*
Y144587D01*
X-97562Y143837D01*
X-99812D01*
X-98312D02*
X-96813Y142337D01*
X-92314Y146836D02*
X-93814Y146086D01*
X-95313Y144587D01*
Y143087D01*
X-94564Y142337D01*
X-93064D01*
X-92314Y143087D01*
Y143837D01*
X-93064Y144587D01*
X-95313D01*
X58751Y159463D02*
Y163962D01*
X61001D01*
X61750Y163212D01*
Y161713D01*
X61001Y160963D01*
X58751D01*
X60251D02*
X61750Y159463D01*
X63250Y163212D02*
X63999Y163962D01*
X65499D01*
X66249Y163212D01*
Y162462D01*
X65499Y161713D01*
X64749D01*
X65499D01*
X66249Y160963D01*
Y160213D01*
X65499Y159463D01*
X63999D01*
X63250Y160213D01*
X58751Y151097D02*
Y155596D01*
X61001D01*
X61750Y154846D01*
Y153347D01*
X61001Y152597D01*
X58751D01*
X60251D02*
X61750Y151097D01*
X66249D02*
X63250D01*
X66249Y154096D01*
Y154846D01*
X65499Y155596D01*
X63999D01*
X63250Y154846D01*
X-16779Y80526D02*
Y85025D01*
X-14529D01*
X-13780Y84275D01*
Y82776D01*
X-14529Y82026D01*
X-16779D01*
X-15279D02*
X-13780Y80526D01*
X-12280D02*
X-10780D01*
X-11530D01*
Y85025D01*
X-12280Y84275D01*
X138865Y127052D02*
Y122554D01*
X141114D01*
X141864Y123304D01*
Y126303D01*
X141114Y127052D01*
X138865D01*
X143364Y122554D02*
X144863D01*
X144113D01*
Y127052D01*
X143364Y126303D01*
X150111Y127052D02*
X148612Y126303D01*
X147112Y124803D01*
Y123304D01*
X147862Y122554D01*
X149362D01*
X150111Y123304D01*
Y124053D01*
X149362Y124803D01*
X147112D01*
X76759Y113273D02*
Y108774D01*
X79008D01*
X79758Y109524D01*
Y112523D01*
X79008Y113273D01*
X76759D01*
X81257Y108774D02*
X82757D01*
X82007D01*
Y113273D01*
X81257Y112523D01*
X88005Y113273D02*
X85006D01*
Y111024D01*
X86506Y111773D01*
X87255D01*
X88005Y111024D01*
Y109524D01*
X87255Y108774D01*
X85756D01*
X85006Y109524D01*
X873Y115635D02*
Y111137D01*
X3122D01*
X3872Y111886D01*
Y114885D01*
X3122Y115635D01*
X873D01*
X5371Y111137D02*
X6871D01*
X6121D01*
Y115635D01*
X5371Y114885D01*
X11370Y111137D02*
Y115635D01*
X9120Y113386D01*
X12119D01*
X-74397Y114489D02*
Y109990D01*
X-72148D01*
X-71399Y110740D01*
Y113739D01*
X-72148Y114489D01*
X-74397D01*
X-69899Y109990D02*
X-68400D01*
X-69149D01*
Y114489D01*
X-69899Y113739D01*
X-66150D02*
X-65400Y114489D01*
X-63901D01*
X-63151Y113739D01*
Y112989D01*
X-63901Y112239D01*
X-64651D01*
X-63901D01*
X-63151Y111490D01*
Y110740D01*
X-63901Y109990D01*
X-65400D01*
X-66150Y110740D01*
X140932Y50478D02*
Y45979D01*
X143181D01*
X143931Y46729D01*
Y49728D01*
X143181Y50478D01*
X140932D01*
X145431Y45979D02*
X146930D01*
X146180D01*
Y50478D01*
X145431Y49728D01*
X152178Y45979D02*
X149179D01*
X152178Y48978D01*
Y49728D01*
X151429Y50478D01*
X149929D01*
X149179Y49728D01*
X66485Y50379D02*
Y45881D01*
X68734D01*
X69484Y46630D01*
Y49629D01*
X68734Y50379D01*
X66485D01*
X70983Y45881D02*
X72483D01*
X71733D01*
Y50379D01*
X70983Y49629D01*
X74732Y45881D02*
X76232D01*
X75482D01*
Y50379D01*
X74732Y49629D01*
X-5171Y50108D02*
Y45610D01*
X-2922D01*
X-2172Y46359D01*
Y49358D01*
X-2922Y50108D01*
X-5171D01*
X-673Y45610D02*
X827D01*
X77D01*
Y50108D01*
X-673Y49358D01*
X3076D02*
X3826Y50108D01*
X5325D01*
X6075Y49358D01*
Y46359D01*
X5325Y45610D01*
X3826D01*
X3076Y46359D01*
Y49358D01*
X-82489Y50379D02*
Y45881D01*
X-80240D01*
X-79490Y46630D01*
Y49629D01*
X-80240Y50379D01*
X-82489D01*
X-77990Y46630D02*
X-77241Y45881D01*
X-75741D01*
X-74991Y46630D01*
Y49629D01*
X-75741Y50379D01*
X-77241D01*
X-77990Y49629D01*
Y48880D01*
X-77241Y48130D01*
X-74991D01*
X141133Y-23637D02*
Y-28135D01*
X143382D01*
X144132Y-27385D01*
Y-24386D01*
X143382Y-23637D01*
X141133D01*
X145632Y-24386D02*
X146381Y-23637D01*
X147881D01*
X148631Y-24386D01*
Y-25136D01*
X147881Y-25886D01*
X148631Y-26636D01*
Y-27385D01*
X147881Y-28135D01*
X146381D01*
X145632Y-27385D01*
Y-26636D01*
X146381Y-25886D01*
X145632Y-25136D01*
Y-24386D01*
X146381Y-25886D02*
X147881D01*
X67806Y-24129D02*
Y-28627D01*
X70056D01*
X70805Y-27878D01*
Y-24878D01*
X70056Y-24129D01*
X67806D01*
X72305D02*
X75304D01*
Y-24878D01*
X72305Y-27878D01*
Y-28627D01*
X-6997Y-24719D02*
Y-29218D01*
X-4747D01*
X-3998Y-28468D01*
Y-25469D01*
X-4747Y-24719D01*
X-6997D01*
X501D02*
X-999Y-25469D01*
X-2498Y-26969D01*
Y-28468D01*
X-1749Y-29218D01*
X-249D01*
X501Y-28468D01*
Y-27718D01*
X-249Y-26969D01*
X-2498D01*
X-82686Y-23538D02*
Y-28037D01*
X-80436D01*
X-79687Y-27287D01*
Y-24288D01*
X-80436Y-23538D01*
X-82686D01*
X-75188D02*
X-78187D01*
Y-25787D01*
X-76688Y-25038D01*
X-75938D01*
X-75188Y-25787D01*
Y-27287D01*
X-75938Y-28037D01*
X-77438D01*
X-78187Y-27287D01*
X141527Y-99719D02*
Y-104218D01*
X143776D01*
X144526Y-103468D01*
Y-100469D01*
X143776Y-99719D01*
X141527D01*
X148275Y-104218D02*
Y-99719D01*
X146025Y-101969D01*
X149024D01*
X66625Y-100605D02*
Y-105104D01*
X68875D01*
X69624Y-104354D01*
Y-101355D01*
X68875Y-100605D01*
X66625D01*
X71124Y-101355D02*
X71873Y-100605D01*
X73373D01*
X74123Y-101355D01*
Y-102105D01*
X73373Y-102854D01*
X72623D01*
X73373D01*
X74123Y-103604D01*
Y-104354D01*
X73373Y-105104D01*
X71873D01*
X71124Y-104354D01*
X-7686Y-100014D02*
Y-104513D01*
X-5437D01*
X-4687Y-103763D01*
Y-100764D01*
X-5437Y-100014D01*
X-7686D01*
X-188Y-104513D02*
X-3187D01*
X-188Y-101514D01*
Y-100764D01*
X-938Y-100014D01*
X-2437D01*
X-3187Y-100764D01*
X-82822Y-102770D02*
Y-107269D01*
X-80573D01*
X-79823Y-106519D01*
Y-103520D01*
X-80573Y-102770D01*
X-82822D01*
X-78323Y-107269D02*
X-76824D01*
X-77574D01*
Y-102770D01*
X-78323Y-103520D01*
X-23539Y170806D02*
X-24600D01*
X-25660Y169746D01*
Y168685D01*
X-23539Y166565D01*
X-22479D01*
X-21419Y167625D01*
Y168685D01*
X-20888Y174517D02*
X-21419Y172926D01*
Y170806D01*
X-20358Y169746D01*
X-19298D01*
X-18238Y170806D01*
Y171866D01*
X-18768Y172396D01*
X-19828Y172396D01*
X-21419Y170806D01*
X-51242Y147169D02*
X-51992Y147919D01*
X-53491D01*
X-54241Y147169D01*
Y144170D01*
X-53491Y143420D01*
X-51992D01*
X-51242Y144170D01*
X-46743Y147919D02*
X-49742D01*
Y145669D01*
X-48243Y146419D01*
X-47493D01*
X-46743Y145669D01*
Y144170D01*
X-47493Y143420D01*
X-48993D01*
X-49742Y144170D01*
X27597Y174819D02*
Y175879D01*
X26537Y176939D01*
X25477D01*
X23356Y174819D01*
Y173758D01*
X24416Y172698D01*
X25477D01*
X27597Y169517D02*
X30778Y172698D01*
X27597Y172698D01*
X29718Y170578D01*
X-35494Y181027D02*
X-36244Y181777D01*
X-37743D01*
X-38493Y181027D01*
Y178028D01*
X-37743Y177278D01*
X-36244D01*
X-35494Y178028D01*
X-33994Y181027D02*
X-33245Y181777D01*
X-31745D01*
X-30995Y181027D01*
Y180277D01*
X-31745Y179528D01*
X-32495D01*
X-31745D01*
X-30995Y178778D01*
Y178028D01*
X-31745Y177278D01*
X-33245D01*
X-33994Y178028D01*
X145510Y164749D02*
X144011D01*
X144760D01*
Y161001D01*
X144011Y160251D01*
X143261D01*
X142511Y161001D01*
X150009Y160251D02*
X147010D01*
X150009Y163250D01*
Y163999D01*
X149259Y164749D01*
X147759D01*
X147010Y163999D01*
X37637Y164779D02*
Y165840D01*
X36576Y166900D01*
X35516D01*
X33395Y164779D01*
Y163719D01*
X34455Y162659D01*
X35516D01*
X38167Y158948D02*
X36046Y161068D01*
X40287D01*
X40817Y161599D01*
Y162659D01*
X39757Y163719D01*
X38697D01*
X-116535Y166718D02*
X-118035D01*
X-117285D01*
Y162969D01*
X-118035Y162219D01*
X-118785D01*
X-119535Y162969D01*
X-115036Y162219D02*
X-113536D01*
X-114286D01*
Y166718D01*
X-115036Y165968D01*
D11*
X4Y166603D02*
X-734Y167030D01*
Y166177D01*
X4Y166603D01*
X141732Y116732D02*
X140994Y117158D01*
Y116306D01*
X141732Y116732D01*
X68504Y116339D02*
X67766Y116765D01*
Y115912D01*
X68504Y116339D01*
X-7874D02*
X-8612Y116765D01*
Y115912D01*
X-7874Y116339D01*
X-83465D02*
X-84203Y116765D01*
Y115912D01*
X-83465Y116339D01*
X143701Y39764D02*
X142963Y40190D01*
Y39338D01*
X143701Y39764D01*
X68504Y40748D02*
X67766Y41174D01*
Y40322D01*
X68504Y40748D01*
X-6693Y39173D02*
X-7431Y39599D01*
Y38747D01*
X-6693Y39173D01*
X-81496Y39961D02*
X-82234Y40387D01*
Y39534D01*
X-81496Y39961D01*
X142126Y-34449D02*
X141388Y-34023D01*
Y-34875D01*
X142126Y-34449D01*
X68504Y-35236D02*
X67766Y-34810D01*
Y-35662D01*
X68504Y-35236D01*
X-6299Y-35827D02*
X-7037Y-35401D01*
Y-36253D01*
X-6299Y-35827D01*
X-81890Y-34449D02*
X-82628Y-34023D01*
Y-34875D01*
X-81890Y-34449D01*
X142520Y-110236D02*
X141781Y-109810D01*
Y-110662D01*
X142520Y-110236D01*
X67520Y-111417D02*
X66782Y-110991D01*
Y-111844D01*
X67520Y-111417D01*
X-6299D02*
X-7037Y-110991D01*
Y-111844D01*
X-6299Y-111417D01*
X-82480Y-113779D02*
X-83218Y-113353D01*
Y-114206D01*
X-82480Y-113779D01*
X-142323Y47441D02*
X-143061Y47867D01*
Y47015D01*
X-142323Y47441D01*
X-39451Y150284D02*
X-40189Y150710D01*
Y149858D01*
X-39451Y150284D01*
X-142520Y-100000D02*
X-143258Y-99574D01*
Y-100426D01*
X-142520Y-100000D01*
X-143110Y123819D02*
X-143848Y124245D01*
Y123393D01*
X-143110Y123819D01*
X-143110Y-26772D02*
X-143848Y-26346D01*
Y-27198D01*
X-143110Y-26772D01*
D12*
X6791Y176772D02*
X7185D01*
X6791Y172047D02*
X7185D01*
X-140Y163332D02*
X1739Y165211D01*
X3618Y163332D01*
X20460Y146490D02*
X22340Y144611D01*
X20460Y142731D02*
X22340Y144611D01*
X1739Y124010D02*
X3618Y125889D01*
X-140D02*
X1739Y124010D01*
X-18862Y144611D02*
X-16983Y146490D01*
X-18862Y144611D02*
X-16983Y142731D01*
X147146Y109449D02*
Y113386D01*
X141634Y109449D02*
Y113386D01*
X147146D01*
X141634Y109449D02*
X147146D01*
X73917Y109055D02*
Y112992D01*
X68405Y109055D02*
Y112992D01*
X73917D01*
X68405Y109055D02*
X73917D01*
X-2461D02*
Y112992D01*
X-7972Y109055D02*
Y112992D01*
X-2461D01*
X-7972Y109055D02*
X-2461D01*
X-78051D02*
Y112992D01*
X-83563Y109055D02*
Y112992D01*
X-78051D01*
X-83563Y109055D02*
X-78051D01*
X149114Y32480D02*
Y36417D01*
X143602Y32480D02*
Y36417D01*
X149114D01*
X143602Y32480D02*
X149114D01*
X73917Y33465D02*
Y37402D01*
X68405Y33465D02*
Y37402D01*
X73917D01*
X68405Y33465D02*
X73917D01*
X-1280Y31890D02*
Y35827D01*
X-6791Y31890D02*
Y35827D01*
X-1280D01*
X-6791Y31890D02*
X-1280D01*
X-76083Y32677D02*
Y36614D01*
X-81595Y32677D02*
Y36614D01*
X-76083D01*
X-81595Y32677D02*
X-76083D01*
X147539Y-41732D02*
Y-37795D01*
X142028Y-41732D02*
Y-37795D01*
X147539D01*
X142028Y-41732D02*
X147539D01*
X73917Y-42520D02*
Y-38583D01*
X68405Y-42520D02*
Y-38583D01*
X73917D01*
X68405Y-42520D02*
X73917D01*
X-886Y-43110D02*
Y-39173D01*
X-6398Y-43110D02*
Y-39173D01*
X-886D01*
X-6398Y-43110D02*
X-886D01*
X-76476Y-41732D02*
Y-37795D01*
X-81988Y-41732D02*
Y-37795D01*
X-76476D01*
X-81988Y-41732D02*
X-76476D01*
X147933Y-117520D02*
Y-113583D01*
X142421Y-117520D02*
Y-113583D01*
X147933D01*
X142421Y-117520D02*
X147933D01*
X72933Y-118701D02*
Y-114764D01*
X67421Y-118701D02*
Y-114764D01*
X72933D01*
X67421Y-118701D02*
X72933D01*
X-886D02*
Y-114764D01*
X-6398Y-118701D02*
Y-114764D01*
X-886D01*
X-6398Y-118701D02*
X-886D01*
X-77067Y-121063D02*
Y-117126D01*
X-82579Y-121063D02*
Y-117126D01*
X-77067D01*
X-82579Y-121063D02*
X-77067D01*
X32732Y159684D02*
X33010Y159405D01*
X29391Y156343D02*
X29670Y156064D01*
X22693Y169723D02*
X22971Y169445D01*
X19352Y166382D02*
X19630Y166104D01*
X-85335Y146063D02*
X-84941Y146063D01*
X-85335Y141339D02*
X-84941Y141339D01*
X-129823Y50787D02*
Y54724D01*
X-132972D02*
X-129823D01*
X-141634Y54724D02*
X-138484Y54724D01*
X-141634Y50787D02*
Y54724D01*
X-33610Y156200D02*
X-32774Y157035D01*
X-40848Y163438D02*
X-40012Y164273D01*
X87106Y137205D02*
X87500Y137205D01*
X87106Y132480D02*
X87500Y132480D01*
X87106Y140748D02*
X87500Y140748D01*
X87106Y145472D02*
X87500Y145473D01*
X87106Y128937D02*
X87500Y128937D01*
X87106Y124213D02*
X87500Y124213D01*
X78839Y78150D02*
X79232D01*
X78839Y73425D02*
X79232D01*
X75886Y180610D02*
X76279D01*
X75886Y175886D02*
X76279D01*
X75886Y172047D02*
X76279D01*
X75886Y167323D02*
X76279D01*
X75886Y163321D02*
X76279D01*
X75886Y158597D02*
X76279D01*
X75886Y155053D02*
X76279D01*
X75886Y150329D02*
X76279Y150329D01*
X65256Y144882D02*
X65650Y144882D01*
X65256Y140157D02*
X65650Y140157D01*
X65256Y136614D02*
X65650D01*
X65256Y131890D02*
X65650D01*
X65256Y128346D02*
X65650Y128347D01*
X65256Y123622D02*
X65650Y123622D01*
X2657Y76968D02*
X3051D01*
X2657Y72244D02*
X3051Y72244D01*
X-12697Y76968D02*
X-12303D01*
X-12697Y72244D02*
X-12303D01*
X-14512Y162560D02*
X-14234Y162839D01*
X-17853Y165901D02*
X-17574Y166180D01*
X-35335Y175394D02*
X-34941D01*
X-35335Y170669D02*
X-34941D01*
X-39370Y148031D02*
X-38976D01*
X-39370Y143307D02*
X-38976Y143307D01*
X-63484Y146063D02*
X-63090D01*
X-63484Y141339D02*
X-63090D01*
X-63484Y137795D02*
X-63090Y137795D01*
X-63484Y133071D02*
X-63090Y133071D01*
X-63484Y129528D02*
X-63090D01*
X-63484Y124803D02*
X-63090D01*
X-72933Y76378D02*
X-72539D01*
X-72933Y71654D02*
X-72539Y71653D01*
X-85335Y137795D02*
X-84941Y137795D01*
X-85335Y133071D02*
X-84941Y133071D01*
X-85335Y129527D02*
X-84941D01*
X-85335Y124803D02*
X-84941D01*
X-130020Y-92716D02*
X-130020Y-96653D01*
X-133169Y-92716D02*
X-130020D01*
X-141831Y-92716D02*
X-138681Y-92716D01*
X-141831Y-96653D02*
Y-92716D01*
X-138287Y113976D02*
Y114370D01*
X-143012Y113976D02*
Y114370D01*
X-130610Y131102D02*
X-130610Y127165D01*
X-133760Y131102D02*
X-130610Y131102D01*
X-142421Y131102D02*
X-139272D01*
X-142421Y127165D02*
X-142421Y131102D01*
X-130610Y-19488D02*
X-130610Y-23425D01*
X-133760Y-19488D02*
X-130610D01*
X-142421Y-19488D02*
X-139272Y-19488D01*
X-142421Y-23425D02*
Y-19488D01*
M02*
