G04*
G04 #@! TF.GenerationSoftware,Altium Limited,Altium Designer,20.2.5 (213)*
G04*
G04 Layer_Physical_Order=1*
G04 Layer_Color=255*
%FSLAX25Y25*%
%MOIN*%
G70*
G04*
G04 #@! TF.SameCoordinates,1507EDD1-6C34-405B-B7BF-0C5FC60213AE*
G04*
G04*
G04 #@! TF.FilePolarity,Positive*
G04*
G01*
G75*
%ADD10C,0.01000*%
%ADD13R,0.03740X0.02756*%
%ADD14R,0.10039X0.09843*%
%ADD15R,0.03740X0.05512*%
%ADD16R,0.01181X0.03150*%
%ADD17C,0.03937*%
G04:AMPARAMS|DCode=18|XSize=9.84mil|YSize=41.34mil|CornerRadius=0mil|HoleSize=0mil|Usage=FLASHONLY|Rotation=45.000|XOffset=0mil|YOffset=0mil|HoleType=Round|Shape=Rectangle|*
%AMROTATEDRECTD18*
4,1,4,0.01114,-0.01810,-0.01810,0.01114,-0.01114,0.01810,0.01810,-0.01114,0.01114,-0.01810,0.0*
%
%ADD18ROTATEDRECTD18*%

G04:AMPARAMS|DCode=19|XSize=9.84mil|YSize=41.34mil|CornerRadius=0mil|HoleSize=0mil|Usage=FLASHONLY|Rotation=45.000|XOffset=0mil|YOffset=0mil|HoleType=Round|Shape=Round|*
%AMOVALD19*
21,1,0.03150,0.00984,0.00000,0.00000,135.0*
1,1,0.00984,0.01114,-0.01114*
1,1,0.00984,-0.01114,0.01114*
%
%ADD19OVALD19*%

G04:AMPARAMS|DCode=20|XSize=9.84mil|YSize=41.34mil|CornerRadius=0mil|HoleSize=0mil|Usage=FLASHONLY|Rotation=315.000|XOffset=0mil|YOffset=0mil|HoleType=Round|Shape=Round|*
%AMOVALD20*
21,1,0.03150,0.00984,0.00000,0.00000,45.0*
1,1,0.00984,-0.01114,-0.01114*
1,1,0.00984,0.01114,0.01114*
%
%ADD20OVALD20*%

%ADD21R,0.01772X0.03347*%
%ADD22O,0.01772X0.03347*%
G04:AMPARAMS|DCode=23|XSize=55.12mil|YSize=37.4mil|CornerRadius=0mil|HoleSize=0mil|Usage=FLASHONLY|Rotation=45.000|XOffset=0mil|YOffset=0mil|HoleType=Round|Shape=Rectangle|*
%AMROTATEDRECTD23*
4,1,4,-0.00626,-0.03271,-0.03271,-0.00626,0.00626,0.03271,0.03271,0.00626,-0.00626,-0.03271,0.0*
%
%ADD23ROTATEDRECTD23*%

%ADD24R,0.02362X0.03543*%
G04:AMPARAMS|DCode=25|XSize=43.31mil|YSize=55.12mil|CornerRadius=0mil|HoleSize=0mil|Usage=FLASHONLY|Rotation=135.000|XOffset=0mil|YOffset=0mil|HoleType=Round|Shape=Rectangle|*
%AMROTATEDRECTD25*
4,1,4,0.03480,0.00418,-0.00418,-0.03480,-0.03480,-0.00418,0.00418,0.03480,0.03480,0.00418,0.0*
%
%ADD25ROTATEDRECTD25*%

G04:AMPARAMS|DCode=26|XSize=55.12mil|YSize=37.4mil|CornerRadius=0mil|HoleSize=0mil|Usage=FLASHONLY|Rotation=315.000|XOffset=0mil|YOffset=0mil|HoleType=Round|Shape=Rectangle|*
%AMROTATEDRECTD26*
4,1,4,-0.03271,0.00626,-0.00626,0.03271,0.03271,-0.00626,0.00626,-0.03271,-0.03271,0.00626,0.0*
%
%ADD26ROTATEDRECTD26*%

%ADD27R,0.05512X0.03740*%
%ADD55P,0.28952X4X360.0*%
%ADD56C,0.00600*%
%ADD57C,0.03150*%
%ADD58C,0.02756*%
%ADD59C,0.02362*%
%ADD60O,0.04724X0.08661*%
%ADD61O,0.02362X0.03543*%
%ADD62O,0.02953X0.05315*%
%ADD63C,0.05512*%
%ADD64R,0.05512X0.05512*%
%ADD65C,0.02756*%
%ADD66C,0.01968*%
D10*
X85925Y165551D02*
X94882Y156595D01*
X29313Y180923D02*
X44685Y165551D01*
X85925D01*
X8974Y180923D02*
X29313D01*
X6148Y178096D02*
Y178096D01*
X8974Y180923D01*
X3347Y174409D02*
Y175295D01*
X6148Y178096D01*
X145661Y-109161D02*
X150454Y-104369D01*
X145563Y-109161D02*
X145661D01*
X150454Y-104369D02*
Y156693D01*
X145177Y-109547D02*
X145563Y-109161D01*
X145177Y-109756D02*
Y-109547D01*
X92699Y-84727D02*
Y-43112D01*
Y-84727D02*
X103878Y-95906D01*
Y-69092D02*
X107104Y-65866D01*
X103878Y-90000D02*
Y-69092D01*
X-128839Y16732D02*
X-128543Y17028D01*
X-125051D02*
X-117896Y24182D01*
X-128543Y17028D02*
X-125051D01*
X-12303Y69882D02*
X-4626D01*
X-787Y73721D01*
Y74606D01*
X-80126Y141445D02*
Y142331D01*
X-75049Y125935D02*
Y136368D01*
X-81496Y143701D02*
X-80126Y142331D01*
Y141445D02*
X-75049Y136368D01*
X6161Y125613D02*
X6747Y126198D01*
Y128467D01*
X6535Y128678D02*
X6747Y128467D01*
X3120Y125613D02*
X6161D01*
X29252Y161075D02*
X31154D01*
X36516Y166437D02*
X38681D01*
X31154Y161075D02*
X36516Y166437D01*
X5427Y159435D02*
X8035Y162042D01*
X2852Y156860D02*
X5427Y159435D01*
X38681Y156299D02*
Y166437D01*
Y156299D02*
X39469Y155512D01*
X13988Y145724D02*
X19051Y150787D01*
X108079Y150681D02*
Y154815D01*
X107776Y155118D02*
X108079Y154815D01*
X101713Y155295D02*
X102087Y154921D01*
X129913Y150681D02*
Y154815D01*
X135906Y154921D02*
X136279Y155295D01*
X131924Y157982D02*
X132185Y158243D01*
X136279Y174960D02*
X136713Y175394D01*
X102087Y155574D02*
X102989Y156476D01*
X-47028Y143701D02*
X-44845Y141518D01*
X-59646Y143701D02*
X-47028D01*
X-20571Y170817D02*
Y172244D01*
X-21465Y173138D02*
X-20571Y172244D01*
X-16093Y170817D02*
X-12500Y174409D01*
X-20571Y170817D02*
X-16093D01*
X-28462Y180135D02*
X-21465Y173138D01*
X-13468Y166945D02*
X-10691Y164168D01*
X-120293Y49033D02*
X-118405Y47146D01*
X-124734Y-11388D02*
Y-9318D01*
X-120374Y49033D02*
X-120293D01*
X92315Y141240D02*
X122638D01*
X124016Y139862D01*
X124941Y135000D02*
X125433D01*
X124063Y135878D02*
Y136416D01*
Y135878D02*
X124941Y135000D01*
X124016Y136464D02*
X124063Y136416D01*
X124016Y136464D02*
Y139862D01*
X122039Y147759D02*
X126575Y143223D01*
Y141437D02*
Y143223D01*
X124941Y135000D02*
X125819Y134122D01*
X25589Y135060D02*
X29802D01*
X29862Y135000D02*
Y135000D01*
X29802Y135060D02*
X29862Y135000D01*
X31704Y140332D02*
X56616D01*
X30740Y139368D02*
X31704Y140332D01*
X29370Y135000D02*
X29862D01*
X30740Y135878D01*
Y139368D01*
X56616Y140332D02*
X61811Y135138D01*
Y134252D02*
Y135138D01*
X-121122Y135000D02*
X-120630D01*
X-120138D01*
X-119260Y135878D01*
Y139368D01*
X-118296Y140332D01*
X-100095D01*
X-95196Y135433D01*
X-88779D01*
X-24567Y135000D02*
X-24075D01*
X-25059D02*
X-24567D01*
X-44845Y141518D02*
X-28087D01*
X-25937Y139368D01*
Y135878D02*
Y139368D01*
Y135878D02*
X-25059Y135000D01*
X-35531Y145669D02*
X-32185D01*
X-30512Y143996D01*
X-45768Y108020D02*
X-42896Y105149D01*
X-45768Y108020D02*
Y125098D01*
X109150Y169000D02*
X115847Y162303D01*
Y158661D02*
Y162303D01*
X109150Y169000D02*
Y175791D01*
X93765Y181595D02*
X103347D01*
X109150Y175791D01*
X90813Y178642D02*
X93765Y181595D01*
X-121016Y-14122D02*
X-120138Y-15000D01*
X-122000Y-14122D02*
X-121016D01*
X-124734Y-11388D02*
X-122000Y-14122D01*
X-124924Y-9507D02*
X-124705Y-9289D01*
Y7290D01*
X-120079Y-25787D02*
X-117716Y-28150D01*
X-107092D01*
X-120472Y-25787D02*
X-120079D01*
X-107092Y-28150D02*
X-101124Y-34117D01*
X-36393Y159640D02*
Y165108D01*
Y159640D02*
X-30119Y153366D01*
X-36393Y165108D02*
X-35976Y165526D01*
X-30119Y149778D02*
Y153366D01*
X-118405Y47146D02*
X-107387D01*
X-101124Y40883D01*
X-35976Y165526D02*
Y167666D01*
X-31496Y172146D01*
Y173031D01*
X-35531Y145669D02*
Y149925D01*
X-37922Y152316D02*
X-35531Y149925D01*
X-37922Y152316D02*
Y154671D01*
X-37646Y154947D01*
X-44432Y180135D02*
X-28462D01*
X-60197Y164370D02*
X-44432Y180135D01*
X-66831Y164370D02*
X-60197D01*
X-12500Y174409D02*
X3347D01*
X-108962Y123721D02*
X-101124Y115883D01*
X-120571Y124617D02*
X-120096D01*
X-119200Y123721D01*
X-108962D01*
X90945Y142610D02*
Y143110D01*
Y142610D02*
X92315Y141240D01*
X30020Y-42767D02*
Y-25787D01*
Y-42767D02*
X32104Y-44851D01*
X-44982Y-42765D02*
X-42896Y-44851D01*
X-44982Y-42765D02*
Y-25395D01*
X-24902Y121260D02*
Y128937D01*
X-72146Y114517D02*
Y117815D01*
X29862Y135000D02*
X30050D01*
X25529Y135120D02*
X25589Y135060D01*
X24114Y137795D02*
X25886D01*
X30315Y142224D02*
X61516D01*
X25886Y137795D02*
X30315Y142224D01*
X61516D02*
X61811Y142520D01*
X144587Y152674D02*
Y153150D01*
X143898Y151986D02*
X144587Y152674D01*
X140453Y152362D02*
Y169095D01*
X132382Y144291D02*
X140453Y152362D01*
X-124311Y143307D02*
X-114043Y153575D01*
X-77626D01*
X-66831Y164370D01*
X-132776Y123819D02*
Y138779D01*
X-131791Y139764D01*
X94882Y151083D02*
Y156595D01*
Y151083D02*
X99803Y146161D01*
X111398D01*
X113984Y150500D02*
X114075Y150591D01*
X113984Y148748D02*
Y150500D01*
X111398Y146161D02*
X113984Y148748D01*
X77518Y115690D02*
X77854Y115354D01*
X71518Y115690D02*
X77518D01*
X71161Y116047D02*
X71518Y115690D01*
X71161Y116047D02*
Y116240D01*
X134072Y117717D02*
X141043D01*
X142224Y116535D01*
X144291D01*
X144390Y116634D01*
X65256Y169685D02*
X72441D01*
X64961Y169980D02*
X65256Y169685D01*
X72146Y177953D02*
X72441Y178248D01*
X66535Y177953D02*
X72146D01*
X72441Y169685D02*
Y178642D01*
X79724D02*
X90813D01*
X79724Y169685D02*
X80315Y169095D01*
X97638D01*
X121949Y150591D02*
X122039Y150500D01*
Y147759D02*
Y150500D01*
X124008Y148728D02*
Y150500D01*
Y148728D02*
X131595Y141142D01*
Y119783D02*
Y141142D01*
X123827Y150681D02*
X124008Y150500D01*
X-148395Y157806D02*
X-142421Y163779D01*
X-148395Y-90680D02*
Y157806D01*
Y-90680D02*
X-139665Y-99409D01*
X-146794Y-19643D02*
Y155863D01*
X-138878Y163779D01*
X-145194Y153526D02*
X-135335Y163386D01*
X-145194Y53758D02*
Y153526D01*
X-140937Y124500D02*
Y136612D01*
X-134941Y142608D01*
Y159843D01*
X-140937Y124500D02*
X-140256Y123819D01*
X-146794Y-19643D02*
X-140256Y-26181D01*
X-125295Y133071D02*
X-123051D01*
X-127773Y135317D02*
X-119390Y143701D01*
X-127773Y131517D02*
Y135317D01*
X-123051Y133071D02*
X-121122Y135000D01*
X-127773Y131517D02*
X-124795Y128539D01*
X-145194Y53758D02*
X-139469Y48031D01*
X-137384Y-121144D02*
Y-96186D01*
X-139075Y-122835D02*
X-137384Y-121144D01*
X138976Y92165D02*
X144390Y97579D01*
X138976Y-132835D02*
X145177Y-126634D01*
X-25059Y-568D02*
X-17896Y6595D01*
X-59744Y115472D02*
X-46122Y129095D01*
X-124705Y81995D02*
X-101124Y105575D01*
X-57955Y65928D02*
X-46122Y54094D01*
X-49705Y65158D02*
X-42896Y71966D01*
X-86024Y92165D02*
X-80807Y97382D01*
X-59744Y-34528D02*
X-46122Y-20906D01*
X-86024Y-132835D02*
X-80209Y-127020D01*
X138976Y17165D02*
X146358Y24547D01*
X-25059Y74432D02*
X-17896Y81595D01*
X-25059Y-75568D02*
X-17896Y-68405D01*
X-81496Y134547D02*
X-76649Y129700D01*
X-58276Y133187D02*
X-49705D01*
X-81496Y126279D02*
X-75861Y120644D01*
X-59545Y40672D02*
X-46122Y54094D01*
X-124705Y7290D02*
X-101124Y30870D01*
X-86024Y17165D02*
X-78839Y24350D01*
X-49705Y6995D02*
X-42896Y13803D01*
X-57955Y-9072D02*
X-46122Y-20906D01*
X-117896Y-58377D02*
X-101124Y-41606D01*
X-86024Y-57835D02*
X-79232Y-51043D01*
X-49705Y-72675D02*
X-42896Y-65866D01*
X-53305Y-88723D02*
X-48821Y-93206D01*
X138976Y-57835D02*
X144783Y-52027D01*
X79035Y143110D02*
X83661D01*
X79035Y134843D02*
X83661D01*
X79035Y126575D02*
X83662D01*
X-21665Y74322D02*
X-16426D01*
X-119390Y143701D02*
X-88779D01*
X-56988Y130709D02*
X-47736D01*
X-82776Y74606D02*
X-76968D01*
X146376Y79535D02*
Y150180D01*
X10925Y-47835D02*
Y27165D01*
X146358Y39665D02*
Y79518D01*
X117699Y95149D02*
X128813Y106263D01*
X124941Y-568D02*
X132104Y6595D01*
X130413Y32883D02*
Y57480D01*
Y-43298D02*
Y-19488D01*
X89075Y114291D02*
X103878Y129095D01*
X92045Y65928D02*
X103878Y54094D01*
X82677Y75787D02*
Y98917D01*
X90455Y-34328D02*
X103878Y-20906D01*
X50098Y124213D02*
Y128937D01*
X63976Y92165D02*
X71161Y99350D01*
X49941Y-568D02*
X57104Y6595D01*
X63976Y-132835D02*
X70177Y-126634D01*
X17045Y65928D02*
X28878Y54094D01*
X15256Y-34528D02*
X28878Y-20906D01*
X17045Y-84072D02*
X28878Y-95906D01*
X-11024Y92165D02*
X-5217Y97973D01*
X10925Y27165D02*
Y102165D01*
X-11024Y-132835D02*
X-3642Y-125453D01*
X10925Y-122835D02*
Y-47835D01*
X-45509Y32761D02*
Y49617D01*
X-71555Y94784D02*
X-64173Y102165D01*
X-53305Y-88723D02*
Y-54814D01*
X-100059Y-568D02*
X-92896Y6595D01*
X-101124Y30870D02*
Y40883D01*
X-132382Y65354D02*
X-121122Y54094D01*
X-126476Y39832D02*
X-117896Y31251D01*
X-132955Y-9072D02*
Y32542D01*
Y-84072D02*
X-121122Y-95906D01*
X-132199Y-31983D02*
X-121122Y-20906D01*
X-128839Y-67057D02*
X-117896Y-56115D01*
Y-65866D02*
Y-58377D01*
X-132955Y-84072D02*
Y-42458D01*
X146358Y24547D02*
Y29232D01*
X130413Y98524D02*
Y118602D01*
X117699Y81402D02*
X124941Y74161D01*
X125925Y-15000D02*
X130413Y-19488D01*
Y-43298D02*
X132104Y-44989D01*
X124941Y-75568D02*
X132104Y-68405D01*
X89075Y110512D02*
X92045Y107542D01*
X82677Y98917D02*
X85925Y102165D01*
X96161Y46378D02*
X103878Y54094D01*
X90455Y39372D02*
X96161Y45079D01*
X90455Y34132D02*
Y39372D01*
X92045Y-9072D02*
X103878Y-20906D01*
X98721Y-9843D02*
X103878Y-15000D01*
X104429Y-42176D02*
X107104Y-44851D01*
X90455Y-40868D02*
X92699Y-43112D01*
X90455Y-40868D02*
Y-34328D01*
X50925Y135000D02*
X53510Y132415D01*
X49941Y74432D02*
X57104Y81595D01*
X50098Y48031D02*
Y53937D01*
X63976Y17165D02*
X71161Y24350D01*
X50098Y-28684D02*
Y-21063D01*
X63976Y-57835D02*
X71161Y-50650D01*
X74213Y-35335D02*
X77264Y-32283D01*
X71161Y-35335D02*
X74213D01*
X49941Y-75568D02*
X57104Y-68405D01*
X50098Y-102559D02*
Y-96063D01*
X32382Y148425D02*
X39469Y155512D01*
X22216Y141211D02*
X29429Y148425D01*
X26487Y148010D02*
X33776Y155299D01*
X34200Y156148D02*
X34744Y156693D01*
X17955Y142314D02*
X19057Y141211D01*
X34744Y156693D02*
Y157283D01*
X19390Y119488D02*
X28000Y128098D01*
X18209Y116612D02*
X19390Y117793D01*
X15455Y114007D02*
X18060Y116612D01*
X18209D01*
X25295Y82290D02*
X32104Y89099D01*
X18060Y43276D02*
X28878Y54094D01*
X26061Y62817D02*
X28878Y60000D01*
X25886Y7290D02*
X32104Y13508D01*
X17045Y-9072D02*
X28878Y-20906D01*
X26651Y-12773D02*
Y-11198D01*
X25886Y-10433D02*
X26651Y-11198D01*
X25295Y-72675D02*
X32104Y-65866D01*
X-3467Y166710D02*
X3347Y173524D01*
X8035Y162941D02*
X10630Y165536D01*
Y174409D01*
X1739Y156860D02*
X2852D01*
X-14979Y150181D02*
X-13097Y148299D01*
X6496Y97744D02*
X10917Y102165D01*
X10925D02*
Y111399D01*
X2854Y125347D02*
X3120Y125613D01*
X-5217Y97973D02*
Y105807D01*
X-787Y73721D02*
X4626Y68307D01*
X-11024Y17165D02*
X-4035Y24154D01*
X-11024Y-57835D02*
X-3642Y-50453D01*
X-24075Y135000D02*
X-19805Y130731D01*
X-21293Y-17585D02*
X-19587Y-19291D01*
X-69841Y139903D02*
X-66929Y142815D01*
X-76649Y124621D02*
X-68012Y115984D01*
X-75049Y125935D02*
X-66240Y117126D01*
X-57301Y-50818D02*
X-53305Y-54814D01*
X-101124Y105575D02*
Y115883D01*
X-100059Y74432D02*
X-92896Y81595D01*
X-99075Y-15000D02*
X-93349Y-20726D01*
Y-30432D02*
Y-20726D01*
X-94545Y-50273D02*
X-92896Y-51922D01*
X-101124Y-41606D02*
Y-34117D01*
X-100059Y-75568D02*
X-92896Y-68405D01*
X-88190Y-106103D02*
X-85904Y-108388D01*
X-124705Y112992D02*
X-117896Y106184D01*
X-134545Y115278D02*
X-124795Y125029D01*
X-134545Y109132D02*
X-132382Y106969D01*
X-117896Y99182D02*
Y106184D01*
X-128248Y91142D02*
X-124427Y94963D01*
X-128272Y46944D02*
X-121122Y54094D01*
X-134545Y40376D02*
X-128272Y46648D01*
X-134636Y44203D02*
X-131988Y46850D01*
X-117896Y24182D02*
Y31251D01*
X-132955Y-9072D02*
X-121122Y-20906D01*
X-135925Y-8365D02*
X-132776Y-11515D01*
X-124705Y-38043D02*
X-117896Y-44851D01*
X-134545Y-35993D02*
X-132199Y-33647D01*
X-134545Y-40868D02*
X-132955Y-42458D01*
X-117896Y-56115D02*
Y-44851D01*
X-124705Y-72675D02*
X-117896Y-65866D01*
X-136457Y-83071D02*
X-132185Y-87343D01*
X146358Y79518D02*
X146376Y79535D01*
X143504Y39665D02*
X146358D01*
X144783Y-33760D02*
X148854Y-29690D01*
X114075Y150591D02*
X114165Y150681D01*
Y154815D01*
X114272Y154921D01*
X130413Y118602D02*
X131595Y119783D01*
X130413Y98524D02*
X132185Y96752D01*
X138878Y92165D02*
X138976D01*
X128772Y59122D02*
X130413Y57480D01*
X133366Y42717D02*
X140453D01*
X130413Y32883D02*
X132104Y31192D01*
X138878Y17165D02*
X138976D01*
X133366Y-30512D02*
X141535D01*
X138878Y-57835D02*
X138976D01*
X132776Y-106102D02*
X141683D01*
X138878Y-132835D02*
X138976D01*
X90945Y134843D02*
X99114D01*
X90945Y134843D02*
X90945Y134843D01*
X95553Y131183D02*
X101789D01*
X90945Y127461D02*
X92315Y128831D01*
X90945Y126575D02*
Y127461D01*
X104429Y107824D02*
X107104Y105149D01*
X104862Y81893D02*
X107104Y84134D01*
X104429Y32824D02*
X107104Y30149D01*
X90455Y34132D02*
X92045Y32542D01*
X104862Y6893D02*
X107104Y9134D01*
X98524Y-9843D02*
X104862Y-3504D01*
X98524Y-9843D02*
X98721D01*
X65986Y142846D02*
X68768D01*
X65659Y134252D02*
X69094D01*
X49941Y135000D02*
X50925D01*
X65659Y125984D02*
X69095D01*
X58112Y130373D02*
X58957Y129528D01*
X55749Y130373D02*
X58112D01*
X49941Y129095D02*
X50098Y128937D01*
X58957Y129528D02*
X59153D01*
X68405Y75787D02*
X75394D01*
X49941Y60000D02*
X50925D01*
X49941Y54094D02*
X50098Y53937D01*
X50925Y60000D02*
X53510Y57415D01*
X74188Y40650D02*
X76673Y43135D01*
X71161Y40650D02*
X74188D01*
X49941Y-15000D02*
X50925D01*
X52264Y-16339D01*
X49941Y-20906D02*
X50098Y-21063D01*
X49941Y-95906D02*
X50098Y-96063D01*
X64447Y-108049D02*
X67498D01*
X33776Y155725D02*
X34200Y156148D01*
X19057Y148010D02*
X26487D01*
X17955Y146907D02*
X19057Y148010D01*
X26083Y131890D02*
X28878Y129095D01*
X24705Y131890D02*
X26083D01*
X25295Y65158D02*
X26061Y64392D01*
Y62817D02*
Y64392D01*
X15455Y39007D02*
X18060Y41612D01*
Y43276D01*
X26651Y-12773D02*
X28878Y-15000D01*
X25295Y-86417D02*
X28878Y-90000D01*
X-13795Y151781D02*
X-11705Y149691D01*
X-13758Y153381D02*
X-12611D01*
X-16199Y155822D02*
X-13758Y153381D01*
X-14636Y151781D02*
X-13795D01*
X-13097Y148299D02*
X-13085D01*
X-14003Y137209D02*
X-11693Y139519D01*
X1739Y130702D02*
X4036Y128406D01*
X10925Y111399D02*
X12995Y113469D01*
X10917Y102165D02*
X10925D01*
X-16142Y73721D02*
X-12303Y69882D01*
X-6912Y-107458D02*
X-3642Y-110728D01*
X-46122Y135000D02*
X-45138D01*
X-46122Y129095D02*
X-45138D01*
X-24075Y60000D02*
X-19587Y55512D01*
X-46122Y60000D02*
X-45138D01*
X-46122Y54094D02*
X-45138D01*
X-45509Y32761D02*
X-42896Y30149D01*
X-24075Y-15000D02*
X-21490Y-17585D01*
X-21293D01*
X-46122Y-15000D02*
X-45138D01*
X-46122Y-20906D02*
X-45138D01*
X-46122Y-90000D02*
X-45138D01*
X-46122Y-95906D02*
X-45138D01*
X-71371Y135433D02*
X-66929D01*
X-71035Y139903D02*
X-69841D01*
X-69840Y125927D02*
X-68167D01*
X-80807Y116240D02*
X-75869D01*
X-70465Y75386D02*
X-69095Y74016D01*
X-76968Y74606D02*
X-76378Y74016D01*
X-79331Y40354D02*
X-76511D01*
X-78297Y-33612D02*
X-76205Y-31520D01*
X-95178Y130708D02*
X-91635Y127165D01*
X-95178Y107883D02*
X-92896Y105602D01*
X-94587Y32588D02*
X-92896Y30897D01*
X-94545Y-31628D02*
X-93349Y-30432D01*
X-85904Y-108388D02*
X-84624D01*
X-134999Y121005D02*
X-132776Y123228D01*
X-122115Y94963D02*
X-117896Y99182D01*
X-136457Y67167D02*
X-131988Y62698D01*
X-134545Y34132D02*
X-132955Y32542D01*
X-134744Y-31693D02*
X-132776Y-29724D01*
X148854Y-29690D02*
Y154313D01*
X128813Y106263D02*
Y132899D01*
X85925Y-47835D02*
Y27165D01*
X55413Y106997D02*
Y130709D01*
X-19805Y107216D02*
Y130731D01*
X-64075Y-47835D02*
Y27165D01*
X-95178Y107883D02*
Y130708D01*
X-139075Y-23444D02*
Y27165D01*
X144390Y116634D02*
Y134246D01*
X145177Y-126634D02*
Y-120768D01*
X132185Y74606D02*
Y96752D01*
X132104Y-68405D02*
Y-44989D01*
X125098Y123622D02*
Y128937D01*
X124941Y60000D02*
Y74161D01*
X107104Y84134D02*
Y105149D01*
Y-65866D02*
Y-44851D01*
X104862Y60000D02*
Y81893D01*
Y-3504D02*
Y6893D01*
X104429Y-42176D02*
Y-25446D01*
X92045Y-9072D02*
Y32542D01*
Y65928D02*
Y107542D01*
X87402Y28642D02*
Y100689D01*
X85925Y-122835D02*
Y-47835D01*
X70177Y-126634D02*
Y-121949D01*
X57104Y81595D02*
Y105306D01*
X55413Y31997D02*
Y55709D01*
X57104Y-68405D02*
Y-41325D01*
X54782Y-39004D02*
Y-18660D01*
X49941Y60000D02*
Y74432D01*
X32104Y89099D02*
Y105149D01*
X29491Y32761D02*
Y49617D01*
X32104Y-65866D02*
Y-44851D01*
X25886Y-10433D02*
Y7290D01*
X25295Y65158D02*
Y82290D01*
X17045Y-9072D02*
Y32542D01*
Y65928D02*
Y107542D01*
Y-84072D02*
Y-42458D01*
X6496Y74606D02*
Y97744D01*
X-3467Y160963D02*
Y166710D01*
X-17896Y81595D02*
Y105306D01*
X-19587Y31702D02*
Y55512D01*
X-17896Y-68405D02*
Y-44693D01*
X-19587Y-43003D02*
Y-19291D01*
X-25059Y60000D02*
Y74432D01*
X-42896Y71966D02*
Y105149D01*
Y-65866D02*
Y-44851D01*
X-49705Y-10433D02*
Y6995D01*
X-57955Y-9072D02*
Y32542D01*
Y65928D02*
Y107542D01*
X-64075Y27165D02*
Y102165D01*
Y-122835D02*
Y-47835D01*
X-76649Y124621D02*
Y129700D01*
X-80807Y97382D02*
Y105807D01*
X-92896Y81595D02*
Y105602D01*
Y-68405D02*
Y-51922D01*
X-99902Y124213D02*
Y128937D01*
X-94587Y32588D02*
Y55709D01*
X-100059Y60000D02*
Y74432D01*
X-124705Y64567D02*
Y81995D01*
X-132382Y65354D02*
Y106969D01*
X-132185Y-100000D02*
Y-87343D01*
X-137187Y29053D02*
Y49668D01*
X-135925Y-8365D02*
Y16732D01*
X-139075Y51556D02*
Y102165D01*
X-135445Y-94621D02*
Y-91426D01*
X-137697Y-46457D02*
Y-24822D01*
X-139075Y-94495D02*
Y-47835D01*
X149311Y157835D02*
X150454Y156693D01*
X143898Y134738D02*
Y151986D01*
X144390Y97579D02*
Y106201D01*
X144783Y-52027D02*
Y-44980D01*
Y-34547D02*
Y-33760D01*
X141683Y-106102D02*
X145177Y-109597D01*
X132104Y6595D02*
Y31192D01*
X127591Y134122D02*
X128813Y132899D01*
X124508Y48031D02*
Y53661D01*
Y-27559D02*
Y-21339D01*
X124941Y-15000D02*
Y-568D01*
Y-90000D02*
Y-75568D01*
X124508Y-102559D02*
Y-96339D01*
X117699Y81402D02*
Y95149D01*
X107104Y9134D02*
Y30149D01*
X104429Y107824D02*
Y111367D01*
X104429Y111367D02*
Y124213D01*
X99705Y64173D02*
X103878Y60000D01*
X104429Y35186D02*
Y49213D01*
X96161Y45079D02*
Y46378D01*
X85925Y102165D02*
X87402Y100689D01*
X85925Y102165D02*
Y117438D01*
X84350Y119013D02*
X85925Y117438D01*
Y27165D02*
X87402Y28642D01*
X78699Y69627D02*
X79035Y69291D01*
X71161Y99350D02*
Y105807D01*
Y24350D02*
Y30217D01*
Y-50650D02*
Y-45768D01*
X63681Y-107283D02*
X64447Y-108049D01*
X57104Y6595D02*
Y30307D01*
X52461Y-16339D02*
X54782Y-18660D01*
X49941Y-15000D02*
Y-568D01*
Y-90000D02*
Y-75568D01*
X29609Y107643D02*
Y124617D01*
X32104Y13508D02*
Y30149D01*
X19057Y141211D02*
X22216D01*
X22817Y133777D02*
X24705Y131890D01*
X25295Y-86417D02*
Y-72675D01*
X15455Y109132D02*
X17045Y107542D01*
X15455Y109132D02*
Y114007D01*
X12995Y113469D02*
Y125394D01*
X15455Y34132D02*
Y39007D01*
X15256Y-40669D02*
X17045Y-42458D01*
X15256Y-40669D02*
Y-34528D01*
X3347Y173524D02*
Y174409D01*
X4035Y166732D02*
X6398Y164370D01*
X4035Y169685D02*
Y173721D01*
X-4035Y24154D02*
Y28642D01*
X-3642Y-35138D02*
X-705Y-32201D01*
X-3642Y-35925D02*
Y-35138D01*
Y-50453D02*
Y-46358D01*
X-3642Y-125453D02*
Y-121949D01*
X-10691Y159825D02*
X1739Y147395D01*
X-10302Y138138D02*
X-7448Y140992D01*
Y141548D01*
X-10138Y-106693D02*
X-9372Y-107458D01*
X-20768Y150197D02*
X-18581Y148010D01*
X-20159Y157304D02*
X-14636Y151781D01*
X-16199Y155822D02*
Y156848D01*
X-16108Y156938D02*
Y157610D01*
X-16199Y156848D02*
X-16108Y156938D01*
X-20159Y157304D02*
Y157564D01*
X-17896Y6595D02*
Y30011D01*
X-19587Y-43003D02*
X-17896Y-44693D01*
X-24902Y49213D02*
Y53937D01*
Y-28150D02*
Y-21063D01*
X-25059Y-15000D02*
Y-568D01*
Y-90000D02*
Y-75568D01*
X-24902Y-102559D02*
Y-96063D01*
X-42896Y13803D02*
Y30149D01*
X-49705Y133400D02*
X-48983Y134122D01*
X-48939Y62817D02*
X-46122Y60000D01*
X-49705Y-11417D02*
X-46122Y-15000D01*
X-49705Y-11417D02*
Y-10433D01*
Y-86417D02*
Y-72675D01*
X-59646Y134557D02*
X-58276Y133187D01*
X-59744Y109331D02*
X-57955Y107542D01*
X-59744Y109331D02*
Y115472D01*
X-59545Y34132D02*
Y40672D01*
X-59744Y-40669D02*
X-57301Y-43112D01*
Y-50818D02*
Y-43112D01*
X-59744Y-40669D02*
Y-34528D01*
X-66240Y110039D02*
Y117126D01*
X-71555Y86024D02*
X-70465Y84933D01*
Y75386D02*
Y84933D01*
X-71555Y86024D02*
Y94784D01*
X-78839Y24350D02*
Y29429D01*
X-79232Y-51043D02*
Y-44980D01*
Y-34547D02*
Y-33969D01*
X-92896Y6595D02*
Y30897D01*
X-99075Y135000D02*
X-95178Y131103D01*
X-99902Y49213D02*
Y53937D01*
X-96949Y-27559D02*
Y-22835D01*
X-100059Y-15000D02*
Y-568D01*
X-94545Y-50273D02*
Y-31628D01*
X-100059Y-90000D02*
Y-75568D01*
X-99902Y-101969D02*
Y-96063D01*
X-124795Y125484D02*
X-122062Y128217D01*
X-124795Y125029D02*
Y125484D01*
Y128539D01*
X-124705Y63583D02*
X-121122Y60000D01*
X-124705Y-38043D02*
Y-32874D01*
Y-86614D02*
Y-72675D01*
X-131988Y47441D02*
Y62698D01*
X-132776Y-29724D02*
Y-26772D01*
Y-11515D01*
X-128839Y-83071D02*
Y-67057D01*
X-137154Y132236D02*
X-136516Y132874D01*
X-134545Y109132D02*
Y115278D01*
X-140104Y110191D02*
X-139075Y109161D01*
Y102165D02*
Y109161D01*
X-136457Y67167D02*
Y91142D01*
X-135111Y52674D02*
Y55879D01*
X-134545Y34132D02*
Y40376D01*
X-135111Y52674D02*
X-134494Y52057D01*
X-139075Y27165D02*
X-137187Y29053D01*
X-135899Y-21090D02*
Y-18334D01*
X-140256Y-26772D02*
Y-26181D01*
X-135925Y-90945D02*
X-135445Y-91426D01*
X-139665Y-100000D02*
Y-99409D01*
X149311Y157835D02*
Y159646D01*
X147539Y155627D02*
X148854Y154313D01*
X147539Y155627D02*
Y156102D01*
X143898Y134738D02*
X144390Y134246D01*
X140453Y42717D02*
X143504Y39665D01*
X141535Y-30512D02*
X144783Y-33760D01*
X145177Y-109756D02*
Y-109597D01*
X129823Y150591D02*
X129913Y150681D01*
Y154815D02*
X130020Y154921D01*
X123827Y150681D02*
Y154815D01*
X123721Y154921D02*
X123827Y154815D01*
X125819Y134122D02*
X127591D01*
X124941Y129095D02*
X125098Y128937D01*
X125819Y59122D02*
X128772D01*
X124508Y53661D02*
X124941Y54094D01*
Y60000D02*
X125819Y59122D01*
X124941Y-15000D02*
X125925D01*
X124508Y-21339D02*
X124941Y-20906D01*
X124508Y-96339D02*
X124941Y-95906D01*
X108079Y150681D02*
X108169Y150591D01*
X101279Y175394D02*
X101713Y174960D01*
X105807Y157874D02*
Y158465D01*
X99193Y134921D02*
X104783D01*
X99114Y134843D02*
X99193Y134921D01*
X104783D02*
X104862Y135000D01*
X101789Y131183D02*
X103878Y129095D01*
X104429Y111367D02*
X104429Y111367D01*
X99705Y64173D02*
Y65158D01*
X103878Y60000D02*
X104862D01*
X104429Y35186D02*
X104429Y35186D01*
X104429Y32824D02*
Y35186D01*
X103878Y-15000D02*
X104862D01*
X104429Y-25446D02*
X104460Y-25414D01*
X93201Y128831D02*
X95553Y131183D01*
X92315Y128831D02*
X93201D01*
X83661Y134843D02*
X83661Y134843D01*
X84350Y119013D02*
Y119488D01*
X89075Y110512D02*
Y114291D01*
X75394Y74902D02*
X78699Y71596D01*
X75394Y74902D02*
Y75787D01*
X78699Y69627D02*
Y71596D01*
X68768Y142846D02*
X69095Y142520D01*
X69094Y134252D02*
X69095Y134252D01*
X69095Y125984D02*
X69095Y125984D01*
X67498Y-108049D02*
X70177Y-110728D01*
Y-111516D02*
Y-110728D01*
X59153Y129528D02*
X61811Y126870D01*
Y125984D02*
Y126870D01*
X63878Y92165D02*
X63976D01*
X63878Y17165D02*
X63976D01*
X63878Y-57835D02*
X63976D01*
X63878Y-132835D02*
X63976D01*
X53707Y132415D02*
X55413Y130709D01*
X55749Y130373D01*
X53510Y132415D02*
X53707D01*
X55413Y106997D02*
X57104Y105306D01*
X53707Y57415D02*
X55413Y55709D01*
X53510Y57415D02*
X53707D01*
X55413Y31997D02*
X57104Y30307D01*
X52264Y-16339D02*
X52461D01*
X54782Y-39004D02*
X57104Y-41325D01*
X33776Y155299D02*
X33776D01*
Y155725D01*
X29429Y148425D02*
X32382D01*
X28000Y128217D02*
X28878Y129095D01*
X28000Y128098D02*
Y128217D01*
X29609Y107643D02*
X32104Y105149D01*
X28878Y60000D02*
X29862D01*
X28878Y54094D02*
X29862D01*
X29491Y32761D02*
X32104Y30149D01*
X28878Y-15000D02*
X29862D01*
X28878Y-20906D02*
X29862D01*
X28878Y-90000D02*
X29862D01*
X28878Y-95906D02*
X29862D01*
X22817Y133777D02*
Y136498D01*
X24114Y137795D01*
X19390Y117793D02*
Y119488D01*
X15658Y144611D02*
X17955Y142314D01*
X17955D01*
X13988Y144611D02*
X15658D01*
X15455Y34132D02*
X17045Y32542D01*
X3347Y174409D02*
X4035Y173721D01*
Y166732D02*
Y169685D01*
X8035Y162042D02*
Y162941D01*
X4035Y160827D02*
X6398Y163189D01*
Y164370D01*
X4035Y160827D02*
Y160827D01*
X4036Y128394D02*
Y128406D01*
X4626Y68110D02*
Y68307D01*
X-3467Y160963D02*
X-1950Y159446D01*
Y159435D02*
Y159446D01*
X1739Y144611D02*
Y147395D01*
Y130702D02*
Y132361D01*
X1337Y42971D02*
X1673Y43307D01*
X-927Y42971D02*
X1337D01*
X-4035Y39862D02*
X-927Y42971D01*
X-4035Y39075D02*
Y39862D01*
X-3642Y-111516D02*
Y-110728D01*
X-10691Y159825D02*
Y164168D01*
X-12611Y153381D02*
X-10313Y151083D01*
X-12731Y155859D02*
X-12305D01*
X-8921Y152475D01*
X-8910D01*
X-11705Y149691D02*
X-11693D01*
X-10313Y151083D02*
X-10302D01*
X-11693Y139519D02*
Y139530D01*
X-11122Y92165D02*
X-11024D01*
X-11122Y17165D02*
X-11024D01*
X-11122Y-57835D02*
X-11024D01*
X-9372Y-107458D02*
X-6912D01*
X-11122Y-132835D02*
X-11024D01*
X-20221Y157626D02*
X-20159Y157564D01*
X-16541Y150181D02*
X-14979D01*
X-20138Y153779D02*
X-16541Y150181D01*
X-15580Y148010D02*
X-14477Y146907D01*
X-18581Y148010D02*
X-15580D01*
X-14003Y136883D02*
Y137209D01*
X-19805Y107216D02*
X-17896Y105306D01*
X-16426Y74322D02*
X-16142Y74606D01*
Y73721D02*
Y74606D01*
X-19587Y31702D02*
X-17896Y30011D01*
X-25059Y129095D02*
X-24902Y128937D01*
X-25059Y60000D02*
X-24075D01*
X-25059Y54094D02*
X-24902Y53937D01*
X-25059Y-15000D02*
X-24075D01*
X-25059Y-20906D02*
X-24902Y-21063D01*
X-25059Y-95906D02*
X-24902Y-96063D01*
X-47000Y134122D02*
X-46122Y135000D01*
X-48983Y134122D02*
X-47000D01*
X-47736Y130709D02*
X-46122Y129095D01*
X-49705Y65158D02*
X-48939Y64392D01*
Y62817D02*
Y64392D01*
X-49705Y-86417D02*
X-46122Y-90000D01*
X-48821Y-93206D02*
X-46122Y-95906D01*
X-59646Y134557D02*
Y135433D01*
Y128051D02*
X-56988Y130709D01*
X-59646Y127165D02*
Y128051D01*
X-59545Y34132D02*
X-57955Y32542D01*
X-66929Y142815D02*
Y143701D01*
X-66929Y135433D02*
X-66929Y135433D01*
X-68167Y125927D02*
X-66929Y127165D01*
X-68774Y112239D02*
X-68438Y112575D01*
X-66353Y109927D02*
X-66240Y110039D01*
X-66353Y109916D02*
Y109927D01*
X-68012Y114984D02*
Y115984D01*
X-68438Y114557D02*
X-68012Y114984D01*
X-68438Y112575D02*
Y114557D01*
X-64173Y102165D02*
X-64075D01*
X-71371Y139567D02*
X-71035Y139903D01*
X-74975Y120644D02*
X-72146Y117815D01*
X-75861Y120644D02*
X-74975D01*
X-76511Y40354D02*
X-73327Y43539D01*
X-76205Y-31520D02*
X-73385D01*
X-73327Y-31461D01*
X-81496Y134547D02*
Y135433D01*
Y126279D02*
Y127165D01*
X-79331Y40354D02*
X-78839Y39862D01*
X-78876Y-33612D02*
X-78297D01*
X-79232Y-33969D02*
X-78876Y-33612D01*
X-84624Y-108388D02*
X-79823Y-113189D01*
Y-113878D02*
Y-113189D01*
X-80209Y-127020D02*
Y-124697D01*
X-79823Y-124311D01*
X-91635Y127165D02*
X-88779D01*
X-86122Y92165D02*
X-86024D01*
X-86122Y17165D02*
X-86024D01*
X-86122Y-57835D02*
X-86024D01*
X-89272Y-106103D02*
X-88190D01*
X-86122Y-132835D02*
X-86024D01*
X-100059Y135000D02*
X-99075D01*
X-95178Y130708D02*
Y131103D01*
X-100059Y129095D02*
X-99902Y128937D01*
X-96586Y57708D02*
X-94587Y55709D01*
X-99075Y60000D02*
X-96783Y57708D01*
X-96586D01*
X-100059Y60000D02*
X-99075D01*
X-100059Y54094D02*
X-99902Y53937D01*
X-100059Y-15000D02*
X-99075D01*
X-98000Y-21783D02*
X-96949Y-22835D01*
X-99181Y-21783D02*
X-98000D01*
X-100059Y-20906D02*
X-99181Y-21783D01*
X-100059Y-90000D02*
X-99075D01*
X-100059Y-95906D02*
X-99902Y-96063D01*
X-122062Y128217D02*
X-121016D01*
X-120138Y129095D01*
X-124427Y94963D02*
X-122115D01*
X-124705Y63583D02*
Y64567D01*
X-121122Y60000D02*
X-120138D01*
X-121122Y-20906D02*
X-120138D01*
X-124705Y-86614D02*
X-124508D01*
X-121122Y-90000D01*
X-120138D01*
X-121122Y-95906D02*
X-120138D01*
X-132776Y123228D02*
Y123819D01*
X-128272Y46648D02*
Y46944D01*
X-131988Y46850D02*
Y47441D01*
X-126476Y39832D02*
Y42717D01*
X-132199Y-33647D02*
Y-31983D01*
X-137154Y128394D02*
Y132236D01*
Y128394D02*
X-137106Y128347D01*
X-140650Y117815D02*
X-139764D01*
X-137245Y120333D01*
X-135728Y56496D02*
X-135111Y55879D01*
X-139075Y51556D02*
X-137187Y49668D01*
X-139469Y47441D02*
Y48031D01*
X-134636Y43789D02*
Y44203D01*
X-136516Y-17717D02*
X-135899Y-18334D01*
Y-21090D02*
X-135335Y-21654D01*
X-139075Y-23444D02*
X-137697Y-24822D01*
X-134545Y-40868D02*
Y-35993D01*
X-139075Y-47835D02*
X-137697Y-46457D01*
X-135445Y-94621D02*
X-134964Y-95102D01*
X-139075Y-94495D02*
X-137384Y-96186D01*
D13*
X29370Y129095D02*
D03*
X50433D02*
D03*
Y135000D02*
D03*
X29370D02*
D03*
X104370D02*
D03*
X125433D02*
D03*
Y129095D02*
D03*
X104370D02*
D03*
X-45630Y135000D02*
D03*
X-24567D02*
D03*
Y129095D02*
D03*
X-45630D02*
D03*
X-120630Y135000D02*
D03*
X-99567D02*
D03*
Y129095D02*
D03*
X-120630D02*
D03*
X104370Y60000D02*
D03*
X125433D02*
D03*
Y54094D02*
D03*
X104370D02*
D03*
X29370Y60000D02*
D03*
X50433D02*
D03*
Y54094D02*
D03*
X29370D02*
D03*
X-45630Y60000D02*
D03*
X-24567D02*
D03*
Y54094D02*
D03*
X-45630D02*
D03*
X-120630Y60000D02*
D03*
X-99567D02*
D03*
Y54094D02*
D03*
X-120630D02*
D03*
X104370Y-15000D02*
D03*
X125433D02*
D03*
Y-20906D02*
D03*
X104370D02*
D03*
X29370Y-15000D02*
D03*
X50433D02*
D03*
Y-20906D02*
D03*
X29370D02*
D03*
X-45630Y-15000D02*
D03*
X-24567D02*
D03*
Y-20906D02*
D03*
X-45630D02*
D03*
X-120630Y-15000D02*
D03*
X-99567D02*
D03*
Y-20906D02*
D03*
X-120630D02*
D03*
X104370Y-90000D02*
D03*
X125433D02*
D03*
Y-95906D02*
D03*
X104370D02*
D03*
X29370Y-90000D02*
D03*
X50433D02*
D03*
Y-95906D02*
D03*
X29370D02*
D03*
X-45630Y-90000D02*
D03*
X-24567D02*
D03*
Y-95906D02*
D03*
X-45630D02*
D03*
X-120630Y-90000D02*
D03*
X-99567D02*
D03*
Y-95906D02*
D03*
X-120630D02*
D03*
D14*
X63878Y92165D02*
D03*
X10925Y102165D02*
D03*
X85925D02*
D03*
X138878Y92165D02*
D03*
X-64075Y102165D02*
D03*
X-11122Y92165D02*
D03*
X-139075Y102165D02*
D03*
X-86122Y92165D02*
D03*
X85925Y27165D02*
D03*
X138878Y17165D02*
D03*
X10925Y27165D02*
D03*
X63878Y17165D02*
D03*
X-64075Y27165D02*
D03*
X-11122Y17165D02*
D03*
X-139075Y27165D02*
D03*
X-86122Y17165D02*
D03*
X85925Y-47835D02*
D03*
X138878Y-57835D02*
D03*
X10925Y-47835D02*
D03*
X63878Y-57835D02*
D03*
X-64075Y-47835D02*
D03*
X-11122Y-57835D02*
D03*
X-139075Y-47835D02*
D03*
X-86122Y-57835D02*
D03*
X85925Y-122835D02*
D03*
X138878Y-132835D02*
D03*
X10925Y-122835D02*
D03*
X63878Y-132835D02*
D03*
X-64075Y-122835D02*
D03*
X-11122Y-132835D02*
D03*
X-139075Y-122835D02*
D03*
X-86122Y-132835D02*
D03*
D15*
X10630Y174409D02*
D03*
X3347D02*
D03*
X-81496Y143701D02*
D03*
X-88779D02*
D03*
X90945Y134843D02*
D03*
X83661Y134843D02*
D03*
X90945Y143110D02*
D03*
X83661Y143110D02*
D03*
X90945Y126575D02*
D03*
X83662D02*
D03*
X82677Y75787D02*
D03*
X75394Y75787D02*
D03*
X79724Y178248D02*
D03*
X72441D02*
D03*
X79724Y169685D02*
D03*
X72441D02*
D03*
X79724Y160959D02*
D03*
X72441Y160959D02*
D03*
X79724Y152691D02*
D03*
X72441Y152691D02*
D03*
X69095Y142520D02*
D03*
X61811Y142520D02*
D03*
X69095Y134252D02*
D03*
X61811Y134252D02*
D03*
X69095Y125984D02*
D03*
X61811D02*
D03*
X6496Y74606D02*
D03*
X-787D02*
D03*
X-8858D02*
D03*
X-16142D02*
D03*
X-31496Y173031D02*
D03*
X-38780D02*
D03*
X-35531Y145669D02*
D03*
X-42815D02*
D03*
X-59646Y143701D02*
D03*
X-66929Y143701D02*
D03*
X-59646Y135433D02*
D03*
X-66929Y135433D02*
D03*
X-59646Y127165D02*
D03*
X-66929Y127165D02*
D03*
X-69095Y74016D02*
D03*
X-76378Y74016D02*
D03*
X-81496Y135433D02*
D03*
X-88779Y135433D02*
D03*
X-81496Y127165D02*
D03*
X-88779Y127165D02*
D03*
D16*
X108169Y150787D02*
D03*
X110138D02*
D03*
X112106D02*
D03*
X114075D02*
D03*
X116043D02*
D03*
X118012D02*
D03*
X119980D02*
D03*
X121949D02*
D03*
X123917D02*
D03*
X125886D02*
D03*
X127854D02*
D03*
X129823D02*
D03*
D17*
X-110827Y-76083D02*
D03*
X138779Y-79232D02*
D03*
X-122047Y155807D02*
D03*
D18*
X-558Y160827D02*
D03*
D19*
X-1950Y159435D02*
D03*
X-3342Y158043D02*
D03*
X-4734Y156651D02*
D03*
X-6126Y155259D02*
D03*
X-7518Y153867D02*
D03*
X-8910Y152475D02*
D03*
X-10301Y151083D02*
D03*
X-11693Y149691D02*
D03*
X-13085Y148299D02*
D03*
X-14477Y146907D02*
D03*
X4036Y128394D02*
D03*
X5427Y129786D02*
D03*
X6819Y131178D02*
D03*
X8211Y132570D02*
D03*
X9603Y133962D02*
D03*
X10995Y135354D02*
D03*
X12387Y136746D02*
D03*
X13779Y138138D02*
D03*
X15171Y139530D02*
D03*
X16563Y140922D02*
D03*
X17955Y142314D02*
D03*
D20*
X-14477D02*
D03*
X-13085Y140922D02*
D03*
X-11693Y139530D02*
D03*
X-10301Y138138D02*
D03*
X-8910Y136746D02*
D03*
X-7518Y135354D02*
D03*
X-6126Y133962D02*
D03*
X-4734Y132570D02*
D03*
X-3342Y131178D02*
D03*
X-1950Y129786D02*
D03*
X-558Y128394D02*
D03*
X17955Y146907D02*
D03*
X16563Y148299D02*
D03*
X15171Y149691D02*
D03*
X13779Y151083D02*
D03*
X12387Y152475D02*
D03*
X10995Y153867D02*
D03*
X9603Y155259D02*
D03*
X8211Y156651D02*
D03*
X6819Y158043D02*
D03*
X5427Y159435D02*
D03*
X4036Y160827D02*
D03*
D21*
X144390Y116634D02*
D03*
X71161Y116240D02*
D03*
X-5217D02*
D03*
X-80807D02*
D03*
X146358Y39665D02*
D03*
X71161Y40650D02*
D03*
X-4035Y39075D02*
D03*
X-78839Y39862D02*
D03*
X144783Y-34547D02*
D03*
X71161Y-35335D02*
D03*
X-3642Y-35925D02*
D03*
X-79232Y-34547D02*
D03*
X145177Y-110335D02*
D03*
X70177Y-111516D02*
D03*
X-3642D02*
D03*
X-79823Y-113878D02*
D03*
D22*
X144390Y106201D02*
D03*
X71161Y105807D02*
D03*
X-5217D02*
D03*
X-80807D02*
D03*
X146358Y29232D02*
D03*
X71161Y30217D02*
D03*
X-4035Y28642D02*
D03*
X-78839Y29429D02*
D03*
X144783Y-44980D02*
D03*
X71161Y-45768D02*
D03*
X-3642Y-46358D02*
D03*
X-79232Y-44980D02*
D03*
X145177Y-120768D02*
D03*
X70177Y-121949D02*
D03*
X-3642D02*
D03*
X-79823Y-124311D02*
D03*
D23*
X28626Y160449D02*
D03*
X33776Y155299D02*
D03*
X23737Y165338D02*
D03*
X18586Y170489D02*
D03*
D24*
X-135728Y56496D02*
D03*
X-139469Y47441D02*
D03*
X-131988D02*
D03*
X-135925Y-90945D02*
D03*
X-132185Y-100000D02*
D03*
X-139665Y-100000D02*
D03*
X-136516Y132874D02*
D03*
X-140256Y123819D02*
D03*
X-132776D02*
D03*
X-136516Y-17717D02*
D03*
X-140256Y-26772D02*
D03*
X-132776Y-26772D02*
D03*
D25*
X-31522Y161071D02*
D03*
X-35976Y165526D02*
D03*
X-42100Y159401D02*
D03*
X-37646Y154947D02*
D03*
D26*
X-13468Y166945D02*
D03*
X-18618Y161795D02*
D03*
D27*
X-140650Y117815D02*
D03*
X-140650Y110531D02*
D03*
D55*
X1739Y144611D02*
D03*
D56*
X9435Y162361D02*
X11786Y164712D01*
X15846Y162330D02*
Y162434D01*
X11786Y164712D02*
X23110D01*
X18520Y135528D02*
X18573D01*
X18160Y135888D02*
X18520Y135528D01*
X14684Y132499D02*
Y134449D01*
X18160Y135888D02*
Y136541D01*
X12387Y136746D02*
X12387D01*
X14684Y132499D02*
X18573Y128611D01*
X16295Y134208D02*
Y135561D01*
Y134208D02*
X18536Y131966D01*
X12387Y136746D02*
X14684Y134449D01*
X13779Y138077D02*
X16295Y135561D01*
X10995Y135354D02*
X11048D01*
X13484Y130977D02*
Y132918D01*
X11048Y135354D02*
X13484Y132918D01*
X9471Y114122D02*
Y131207D01*
X8211Y132467D02*
Y132570D01*
Y132467D02*
X9471Y131207D01*
X6819Y131074D02*
Y131178D01*
Y131074D02*
X8271Y129623D01*
Y116073D02*
Y129623D01*
X466Y108268D02*
X8271Y116073D01*
X-517Y104134D02*
X9471Y114122D01*
X-9291Y161469D02*
Y168721D01*
X-8176Y169836D01*
X-5803Y168704D02*
X-5413Y169095D01*
X-8176Y171078D02*
X-7786Y171467D01*
X-9291Y161469D02*
X-6039Y158217D01*
X-4908Y159349D02*
X-4752D01*
X-3446Y158043D02*
X-3342D01*
X-7691Y168058D02*
X-7045Y168704D01*
X-7691Y162132D02*
Y168058D01*
Y162132D02*
X-4908Y159349D01*
X-6039Y158061D02*
X-4734Y156755D01*
X-8176Y169836D02*
Y171078D01*
X-4752Y159349D02*
X-3446Y158043D01*
X-7045Y168704D02*
X-5803D01*
X-6039Y158061D02*
Y158217D01*
X-4734Y156651D02*
Y156755D01*
X-73649Y126515D02*
Y147414D01*
X-43406Y177657D01*
X114764Y145177D02*
X115176Y144765D01*
X116718D01*
X117104Y144379D01*
X118991D01*
X120325Y145714D01*
Y147601D01*
X118029Y146675D02*
X118047Y146657D01*
X118012Y150591D02*
X118029Y150573D01*
Y146675D02*
Y150573D01*
X119980Y147946D02*
Y150591D01*
Y147946D02*
X120325Y147601D01*
X23524Y139567D02*
X25098D01*
X31102Y145571D01*
X55512D01*
X57185Y147244D01*
X81265Y157976D02*
Y159418D01*
X82952Y156025D02*
X83317Y156390D01*
X81616Y156025D02*
X82952D01*
X81265Y155674D02*
X81616Y156025D01*
X83317Y156390D02*
X85283D01*
X81265Y154232D02*
Y155674D01*
X85283Y157990D02*
X86161Y158868D01*
X81265Y157976D02*
X81616Y157625D01*
X82654Y157990D02*
X85283D01*
X82289Y157625D02*
X82654Y157990D01*
X79724Y160959D02*
X81265Y159418D01*
X86161Y155512D02*
X86713D01*
X81616Y157625D02*
X82289D01*
X86161Y158868D02*
X86713D01*
X79724Y152691D02*
X81265Y154232D01*
X85283Y156390D02*
X86161Y155512D01*
X-5217Y116240D02*
X-2756D01*
X1083Y112402D01*
X1378D01*
X19220Y153740D02*
X21752D01*
X-129173Y123196D02*
Y173600D01*
X-128839Y173935D01*
X-138194Y114175D02*
X-129173Y123196D01*
X-18406Y122828D02*
X-3431Y107853D01*
X10717Y113171D02*
Y132849D01*
X-8809Y123031D02*
X-2054Y129786D01*
X17381Y156187D02*
X20945Y159751D01*
X16563Y140922D02*
X19099Y138386D01*
X9603Y155259D02*
X13072Y158728D01*
X8211Y156651D02*
X11300Y159740D01*
X9603Y133962D02*
X10717Y132849D01*
X-15115Y138892D02*
X-13085Y140922D01*
X-15909Y131299D02*
X-13599Y133609D01*
X5006Y107459D02*
X10717Y113171D01*
X492Y100591D02*
X5006Y105104D01*
X-5901Y123051D02*
X-558Y128394D01*
X-8772Y125310D02*
X-5498Y128584D01*
X-8858Y83215D02*
X-3431Y88643D01*
X-73649Y126515D02*
X-64075Y116940D01*
X58193Y144800D02*
X60728Y147336D01*
X15171Y149691D02*
X19220Y153740D01*
X17683Y154987D02*
X18853D01*
X-16398Y161795D02*
X-12740Y158137D01*
X-13599Y133609D02*
X-12046D01*
X-7776Y129528D02*
X-4734Y132570D01*
X-13631Y131027D02*
X-12263Y132395D01*
X-15909Y127756D02*
X-13631Y130034D01*
Y131027D01*
X-5498Y129023D02*
X-3342Y131178D01*
X-5498Y128584D02*
Y129023D01*
X60728Y147336D02*
Y161417D01*
X57185Y147244D02*
Y161417D01*
X53642Y151378D02*
Y162598D01*
X50098Y151969D02*
Y161417D01*
X-3431Y88643D02*
Y107853D01*
X-18406Y122828D02*
Y134843D01*
X23110Y164712D02*
X23737Y165338D01*
X22386Y156737D02*
X22799Y157149D01*
X10995Y153867D02*
X15180Y158052D01*
X-8282Y131806D02*
X-6126Y133962D01*
X-13085Y140922D02*
X-13085D01*
X-11788Y158137D02*
X-7518Y153867D01*
X-10477Y132395D02*
X-7518Y135354D01*
X-12363Y125310D02*
X-8772D01*
X-8858Y74606D02*
Y83215D01*
X-16634Y140157D02*
X-14477Y142314D01*
X-64075Y102165D02*
Y116940D01*
X70549Y157625D02*
X70900Y157976D01*
Y159418D02*
X72441Y160959D01*
X70900Y157976D02*
Y159418D01*
X69244Y157625D02*
X70549D01*
X67815Y158503D02*
X68366D01*
X69244Y157625D01*
X70900Y154232D02*
Y155674D01*
X70549Y156025D02*
X70900Y155674D01*
Y154232D02*
X72441Y152691D01*
X69244Y156025D02*
X70549D01*
X68366Y155147D02*
X69244Y156025D01*
X67815Y155147D02*
X68366D01*
X57963Y144800D02*
X58193D01*
X28878Y129095D02*
X29862D01*
X20945Y159751D02*
Y160610D01*
X21357Y161023D01*
X18853Y154987D02*
X20603Y156737D01*
X22386D01*
X19099Y138386D02*
X22343D01*
X23524Y139567D01*
X13072Y159555D02*
X15846Y162330D01*
X15180Y158052D02*
X16025D01*
X16437Y158465D01*
X13072Y158728D02*
Y159555D01*
X11300Y161005D02*
X11713Y161417D01*
X11300Y159740D02*
Y161005D01*
X13779Y151083D02*
X17683Y154987D01*
X16099Y156187D02*
X17381D01*
X12387Y152475D02*
X16099Y156187D01*
X15171Y139530D02*
X18160Y136541D01*
X13779Y138077D02*
Y138138D01*
X13484Y130977D02*
X14845Y129617D01*
Y129117D02*
Y129617D01*
X6819Y158043D02*
X9435Y160658D01*
Y162361D01*
X5006Y105104D02*
Y107459D01*
X-4734Y132570D02*
Y132570D01*
X-2054Y129786D02*
X-1950D01*
X395Y108268D02*
X466D01*
X-689Y104134D02*
X-517D01*
X-12740Y158137D02*
X-11788D01*
X-12046Y133609D02*
X-8910Y136746D01*
X-11058Y130117D02*
X-9369Y131806D01*
X-8282D01*
X-7776Y129528D02*
Y129528D01*
X-12263Y132395D02*
X-10477D01*
X-11320Y130117D02*
X-11058D01*
X-5901Y121198D02*
Y123051D01*
X-6314Y120785D02*
X-5901Y121198D01*
X-8957Y123031D02*
X-8809D01*
X-18618Y161795D02*
X-16398D01*
X-17993Y136114D02*
X-15215Y138892D01*
X-17224Y140157D02*
X-16634D01*
X-15215Y138892D02*
X-15115D01*
X-17993Y135255D02*
Y136114D01*
X-18406Y134843D02*
X-17993Y135255D01*
X-15909Y131299D02*
X-15056D01*
X-139764Y110531D02*
X-138194Y112102D01*
Y114175D01*
X-140650Y110531D02*
X-139764D01*
D57*
X105020Y158071D02*
X107973Y155118D01*
X107776D02*
X107973D01*
X102087D02*
X107776D01*
X103543Y158071D02*
X105020D01*
X130020Y155118D02*
X135906D01*
X130020D02*
X132579Y157677D01*
X134252D01*
X-43110Y146850D02*
X-42815Y146555D01*
Y145669D02*
Y146555D01*
X-31522Y161071D02*
X-31104Y161489D01*
D58*
X102087Y158071D02*
Y172282D01*
X135906Y157677D02*
Y172282D01*
X136713Y173089D02*
Y175394D01*
Y175591D01*
X135906Y172282D02*
X136713Y173089D01*
X101279Y175394D02*
Y175591D01*
Y173089D02*
Y175394D01*
Y173089D02*
X102087Y172282D01*
X-38780Y172146D02*
Y173031D01*
X-39272Y171653D02*
X-38780Y172146D01*
X-42815Y171653D02*
X-39272D01*
X-45177Y169291D02*
X-42815Y171653D01*
X-45177Y166634D02*
Y169291D01*
X-50295Y151206D02*
X-42100Y159401D01*
X-42275D02*
X-41683Y159993D01*
Y160932D01*
X-45177Y164427D02*
X-41683Y160932D01*
X-45177Y164427D02*
Y166634D01*
X-42275Y159401D02*
X-42100D01*
X13780Y178445D02*
X16770D01*
X19213Y176002D01*
X10630Y174409D02*
Y175295D01*
X13780Y178445D01*
X19909Y171115D02*
X20256Y170768D01*
X25002D02*
X29252Y166517D01*
X20256Y170768D02*
X25002D01*
X18586Y170489D02*
X19213Y171115D01*
X19909D01*
X29252Y161075D02*
Y166517D01*
X19213Y171115D02*
Y176002D01*
X-14095Y167571D02*
X-13468Y166945D01*
X-18792Y167571D02*
X-14095D01*
X-19123Y167241D02*
X-18792Y167571D01*
X-50295Y148425D02*
X-48720Y146850D01*
X-43110D01*
X-50295Y148425D02*
Y151206D01*
X-31104Y161489D02*
X-28053D01*
X-26697Y162845D01*
X-22301Y167241D02*
X-19123D01*
X-26697Y162845D02*
X-22301Y167241D01*
D59*
X125295Y158661D02*
D03*
X107973Y155118D02*
D03*
X114272D02*
D03*
X117421D02*
D03*
X120571D02*
D03*
X123721D02*
D03*
X130020D02*
D03*
X109547Y158661D02*
D03*
X112697D02*
D03*
X115847D02*
D03*
X122146D02*
D03*
X128445D02*
D03*
D60*
X136713Y175591D02*
D03*
X101279D02*
D03*
D61*
X132185Y158661D02*
D03*
X105807D02*
D03*
D62*
X102087Y155118D02*
D03*
X135906D02*
D03*
D63*
X-74705Y164370D02*
D03*
X-82579D02*
D03*
X-66831D02*
D03*
X-98327D02*
D03*
X-90453D02*
D03*
D64*
X-106201D02*
D03*
D65*
X15846Y162434D02*
D03*
X18573Y135528D02*
D03*
X38681Y166437D02*
D03*
X-20571Y170817D02*
D03*
X-5413Y169095D02*
D03*
X-120374Y49033D02*
D03*
X126575Y141437D02*
D03*
X-30512Y143996D02*
D03*
X-45768Y125098D02*
D03*
X-120472Y-25787D02*
D03*
X-43406Y177657D02*
D03*
X-26697Y162845D02*
D03*
X118047Y146657D02*
D03*
X114764Y145177D02*
D03*
X30020Y-25787D02*
D03*
X-44982Y-25395D02*
D03*
X-24902Y121260D02*
D03*
X-72146Y114517D02*
D03*
X144587Y153150D02*
D03*
X132382Y144291D02*
D03*
X-124311Y143307D02*
D03*
X-131791Y139764D02*
D03*
X25295Y65158D02*
D03*
X-18406Y134843D02*
D03*
X86713Y158868D02*
D03*
X1378Y112402D02*
D03*
X77854Y115354D02*
D03*
X134072Y117717D02*
D03*
X64961Y169980D02*
D03*
X66535Y177953D02*
D03*
X21752Y153740D02*
D03*
X97638Y169095D02*
D03*
X140453D02*
D03*
X-142421Y163779D02*
D03*
X-138878Y163779D02*
D03*
X-135335Y163386D02*
D03*
X-134941Y159843D02*
D03*
X-125295Y133071D02*
D03*
X146376Y150180D02*
D03*
X147539Y156102D02*
D03*
X98524Y-9843D02*
D03*
X65659Y134252D02*
D03*
X67815Y158503D02*
D03*
X65659Y125984D02*
D03*
X50098Y124213D02*
D03*
Y-28684D02*
D03*
X34200Y156148D02*
D03*
X18536Y131966D02*
D03*
X25886Y-10433D02*
D03*
X-12731Y155859D02*
D03*
X2854Y125347D02*
D03*
X-12363Y125310D02*
D03*
X1673Y43307D02*
D03*
X-30119Y149778D02*
D03*
X-20221Y157626D02*
D03*
X-20768Y150197D02*
D03*
X-69840Y125927D02*
D03*
X-99902Y124213D02*
D03*
X-124795Y125484D02*
D03*
X-134494Y52057D02*
D03*
X-134636Y43789D02*
D03*
X-124924Y-9507D02*
D03*
X132185Y74606D02*
D03*
X99114Y134843D02*
D03*
X99705Y65158D02*
D03*
X57185Y161417D02*
D03*
X50098D02*
D03*
Y151969D02*
D03*
X67815Y155147D02*
D03*
X65986Y142846D02*
D03*
X57963Y144800D02*
D03*
X50098Y48031D02*
D03*
Y-102559D02*
D03*
X25529Y135120D02*
D03*
X18573Y128611D02*
D03*
X4035Y169685D02*
D03*
X11713Y161417D02*
D03*
X-14003Y136883D02*
D03*
X-6314Y120785D02*
D03*
X-20138Y153779D02*
D03*
X-21665Y74322D02*
D03*
X-45509Y49617D02*
D03*
X-68774Y112239D02*
D03*
X-95178Y130708D02*
D03*
X-99902Y49213D02*
D03*
Y-101969D02*
D03*
X-124705Y112992D02*
D03*
Y64567D02*
D03*
X-126476Y42717D02*
D03*
X-134744Y-31693D02*
D03*
X-124705Y-32874D02*
D03*
X-134964Y-95102D02*
D03*
X132776Y-106102D02*
D03*
X125098Y123622D02*
D03*
X124508Y-27559D02*
D03*
X104429Y124213D02*
D03*
X104460Y-25414D02*
D03*
X86713Y155512D02*
D03*
X79035Y126575D02*
D03*
Y69291D02*
D03*
X68405Y75787D02*
D03*
X63681Y-107283D02*
D03*
X29609Y124617D02*
D03*
X22799Y157149D02*
D03*
X16437Y158465D02*
D03*
X12995Y125394D02*
D03*
X4626Y68110D02*
D03*
X395Y108268D02*
D03*
X492Y100591D02*
D03*
X-7786Y171467D02*
D03*
X-10138Y-106693D02*
D03*
X-16108Y157610D02*
D03*
X-15909Y131299D02*
D03*
X-17224Y140157D02*
D03*
X-24902Y-28150D02*
D03*
X-45177Y166634D02*
D03*
X-50295Y148425D02*
D03*
X-49705Y133187D02*
D03*
Y-10433D02*
D03*
X-66353Y109916D02*
D03*
X-71371Y139567D02*
D03*
X-74734Y116899D02*
D03*
X-73327Y43539D02*
D03*
X-89272Y-106103D02*
D03*
X-96949Y-27559D02*
D03*
X-120571Y124617D02*
D03*
X-128839Y173935D02*
D03*
Y-83071D02*
D03*
X-136457D02*
D03*
X149311Y159646D02*
D03*
X133366Y42717D02*
D03*
Y-30512D02*
D03*
X124508Y48031D02*
D03*
Y-102559D02*
D03*
X104429Y49213D02*
D03*
X84350Y119488D02*
D03*
X79035Y143110D02*
D03*
Y134843D02*
D03*
X76673Y43135D02*
D03*
X77264Y-32283D02*
D03*
X60728Y161417D02*
D03*
X53642Y162598D02*
D03*
Y151378D02*
D03*
X55413Y130709D02*
D03*
X29491Y49617D02*
D03*
X21357Y161023D02*
D03*
X14845Y129117D02*
D03*
X-689Y104134D02*
D03*
X492Y-31865D02*
D03*
X-11320Y130117D02*
D03*
X-7776Y129528D02*
D03*
X-8957Y123031D02*
D03*
X-15909Y127756D02*
D03*
X-24902Y49213D02*
D03*
Y-102559D02*
D03*
X-49705Y65158D02*
D03*
X-71371Y135433D02*
D03*
X-73327Y-31461D02*
D03*
X-82776Y74606D02*
D03*
X-128248Y91142D02*
D03*
X-128839Y16732D02*
D03*
X-137106Y128347D02*
D03*
X-135925Y120669D02*
D03*
X-136457Y91142D02*
D03*
X-135925Y16732D02*
D03*
X-135335Y-21654D02*
D03*
D66*
X1739Y156860D02*
D03*
X4801Y153797D02*
D03*
X7863Y150735D02*
D03*
X10926Y147673D02*
D03*
X13988Y144611D02*
D03*
X-1323Y153797D02*
D03*
X1739Y150735D02*
D03*
X4801Y147673D02*
D03*
X7863Y144611D02*
D03*
X10926Y141548D02*
D03*
X-4386Y150735D02*
D03*
X-1323Y147673D02*
D03*
X1739Y144611D02*
D03*
X4801Y141548D02*
D03*
X7863Y138486D02*
D03*
X-7448Y147673D02*
D03*
X-4386Y144611D02*
D03*
X-1323Y141548D02*
D03*
X1739Y138486D02*
D03*
X4801Y135424D02*
D03*
X-10510Y144611D02*
D03*
X-7448Y141548D02*
D03*
X-4386Y138486D02*
D03*
X-1323Y135424D02*
D03*
X1739Y132361D02*
D03*
M02*
